<?xml version="1.0" encoding="utf-8"?>
<svg enable-background="new 0 0 24 24" height="512" viewBox="0 0 512 512" width="512" xmlns="http://www.w3.org/2000/svg">
  <path d="M 480 512 L 32 512 C 14.357 512 0 497.643 0 480 L 0 32 C 0 14.357 14.357 0 32 0 L 480 0 C 497.643 0 512 14.357 512 32 L 512 480 C 512 497.643 497.643 512 480 512 Z M 32 21.333 C 26.112 21.333 21.333 26.112 21.333 32 L 21.333 480 C 21.333 485.888 26.112 490.667 32 490.667 L 480 490.667 C 485.888 490.667 490.667 485.888 490.667 480 L 490.667 32 C 490.667 26.112 485.888 21.333 480 21.333 Z"/>
  <path d="M 170.667 512 C 164.779 512 160 507.221 160 501.333 L 160 10.667 C 160 4.779 164.779 0 170.667 0 C 176.555 0 181.333 4.779 181.333 10.667 L 181.333 501.333 C 181.333 507.221 176.555 512 170.667 512 Z"/>
  <path d="M 341.333 512 C 335.445 512 330.667 507.221 330.667 501.333 L 330.667 10.667 C 330.667 4.779 335.445 0 341.333 0 C 347.221 0 352 4.779 352 10.667 L 352 501.333 C 352 507.221 347.221 512 341.333 512 Z"/>
</svg>