<?xml version="1.0" encoding="iso-8859-1"?>
<!DOCTYPE svg PUBLIC "-//W3C//DTD SVG 1.1//EN" "http://www.w3.org/Graphics/SVG/1.1/DTD/svg11.dtd">
<svg version="1.1" id="svg_1" xmlns="http://www.w3.org/2000/svg" xmlns:xlink="http://www.w3.org/1999/xlink" x="0px" y="0px"
	 width="320px" height="320px" viewBox="0 0 320 320"
	 xml:space="preserve">
<g>
	<g>
		<path d="M98.685,274.34l-2.565-0.121c-8.889-0.453-16.973-1.925-24.034-4.388c-6.099-2.141-9.191-4.915-9.191-8.273
			c0-1.799,0.279-4.214,0.825-7.188c0.562-3.037,1.593-7.05,3.062-11.896c1.627-5.104,3.451-10.674,5.498-16.717
			c1.87-5.548,4.292-12.087,7.214-19.459h83.251l19.887,53.811c0.39,0.97,0.686,2.119,0.886,3.428
			c0.211,1.35,0.321,2.494,0.321,3.438c0,0.623-1.471,2.236-7.04,3.86c-5.784,1.683-13.193,2.821-22.027,3.386l-2.529,0.163v17.63
			h108.361v-17.688l-2.595-0.105c-2.721-0.11-6.175-0.696-10.257-1.751c-4.034-1.033-7.313-2.31-9.634-3.718
			c-3.713-2.516-6.624-5.078-8.648-7.646c-2.036-2.568-3.893-6.027-5.537-10.288L140.708,35.416h-17.664l-0.669,1.725
			c-11.757,30.257-25.139,64.761-40.155,103.513c-14.895,38.443-28.751,73.681-41.175,104.698
			c-2.35,5.817-4.765,10.399-7.172,13.627c-2.365,3.169-5.782,6.275-10.114,9.197c-2.64,1.688-6.123,3.068-10.352,4.103
			c-4.385,1.065-8.063,1.719-10.914,1.93L0,274.408v17.593h98.685V274.34z M87.684,185.361l33.064-85.954l33.544,85.954H87.684z"/>
		<polygon points="256.278,234.604 289.369,289.301 322.46,234.604 297.47,234.604 297.47,85.14 322.46,85.14 289.369,30.449 
			256.278,85.14 281.27,85.14 281.27,234.604"/>
	</g>
</g>
</svg>
