<?xml version="1.0" encoding="utf-8"?>
<svg width="512px" height="512px" fill-rule="evenodd" clip-rule="evenodd" preserveAspectRatio="xMidYMid meet" xmlns="http://www.w3.org/2000/svg">
  <path d="M 512 512 L 0 512 L 0 0 L 512 0 L 512 512 Z M 490.667 25.6 L 21.333 25.6 L 21.333 486.4 L 490.667 486.4 L 490.667 25.6 Z M 469.333 435.2 L 64 435.2 L 149.333 243.405 L 213.333 321.434 L 320.277 128 L 469.333 435.2 Z M 216.576 361.856 L 154.496 286.182 L 99.584 409.6 L 432.235 409.6 L 319.104 176.435 L 216.576 361.856 Z M 117.333 76.8 C 146.773 76.8 170.667 105.472 170.667 140.8 C 170.667 176.128 146.773 204.8 117.333 204.8 C 87.893 204.8 64 176.128 64 140.8 C 64 105.472 87.893 76.8 117.333 76.8 Z M 117.333 102.4 C 134.997 102.4 149.333 119.603 149.333 140.8 C 149.333 161.997 134.997 179.2 117.333 179.2 C 99.669 179.2 85.333 161.997 85.333 140.8 C 85.333 119.603 99.669 102.4 117.333 102.4 Z"/>
</svg>
