<?xml version="1.0" encoding="utf-8"?>
<svg width="512px" height="512px" xmlns="http://www.w3.org/2000/svg">
  <g transform="matrix(1.167227, 0, 0, 1.273342, -35.806683, -62.335461)">
    <title>Row Icon for Editor</title>
    <g id="path">
      <path id="svg_1" d="m44.38442,376.84252c-1.70007,0 -3.40015,-0.31123 -5.02661,-0.95043c-5.24413,-2.06486 -8.6811,-7.12828 -8.6811,-12.75727l0,-137.07705c0,-5.62899 3.43697,-10.69241 8.6811,-12.75726c5.26421,-2.06486 11.20445,-0.72957 15.04301,3.40015l63.96706,68.53852c4.93625,5.26421 4.93625,13.43328 0,18.69749l-63.96706,68.53852c-2.65051,2.85131 -6.28828,4.36733 -10.0164,4.36733zm13.7077,-116.00346l0,67.51446l31.50831,-33.75723l-31.50831,-33.75723zm0,0"/>
      <path id="svg_2" d="m437.33974,451.04578l-283.29368,0c-17.63662,0 -31.98353,-14.3469 -31.98353,-31.98353l0,-45.69123c0,-17.63997 14.3469,-31.98688 31.98353,-31.98688l283.29368,0c17.63662,0 31.98353,14.34691 31.98353,31.98688l0,45.69123c0,17.63662 -14.3469,31.98353 -31.98353,31.98353zm-283.29368,-82.24623c-2.52334,0 -4.56812,2.04813 -4.56812,4.57147l0,45.69123c0,2.52334 2.04478,4.56812 4.56812,4.56812l283.29368,0c2.52,0 4.56812,-2.04478 4.56812,-4.56812l0,-45.69123c0,-2.52334 -2.04812,-4.57147 -4.56812,-4.57147l-283.29368,0zm0,0"/>
      <path id="svg_3" d="m437.33974,250.00168l-283.29368,0c-17.63662,0 -31.98353,-14.3469 -31.98353,-31.98688l0,-137.07705c0,-17.63662 14.3469,-31.98353 31.98353,-31.98353l283.29368,0c17.63662,0 31.98353,14.3469 31.98353,31.98353l0,137.07705c0,17.63997 -14.3469,31.98688 -31.98353,31.98688zm-283.29368,-173.63204c-2.52334,0 -4.56812,2.04813 -4.56812,4.56812l0,137.07705c0,2.52334 2.04478,4.57147 4.56812,4.57147l283.29368,0c2.52,0 4.56812,-2.04813 4.56812,-4.57147l0,-137.07705c0,-2.51999 -2.04812,-4.56812 -4.56812,-4.56812l-283.29368,0zm0,0"/>
      <path id="svg_4" d="m455.61556,163.18398l-319.84533,0c-7.56668,0 -13.7077,-6.14103 -13.7077,-13.7077s6.14103,-13.7077 13.7077,-13.7077l319.84533,0c7.56668,0 13.7077,6.14103 13.7077,13.7077s-6.14103,13.7077 -13.7077,13.7077z"/>
    </g>
  </g>
</svg>