<?xml version="1.0" encoding="utf-8"?>
<svg id="marketing-starter-icon" height="128px" viewBox="0 0 128 128" width="128px" xmlns="http://www.w3.org/2000/svg">
  <g transform="matrix(0.258689, 0, 0, 0.25, -2.22446, -0.000003)">
    <path d="m488.401 120h-77.468c-8.284 0-15 6.716-15 15v106h-62.467c-8.284 0-15 6.716-15 15v69.021h-47.466v-70.021c0-8.284-6.716-15-15-15h-77.467c-8.284 0-15 6.716-15 15v70.021h-62.467c-8.284 0-15 6.716-15 15v61.521h-47.467v-311.542c0-8.284-6.716-15-15-15s-15 6.716-15 15v407c0 8.284 6.716 15 15 15h464.802c8.284 0 15-6.716 15-15v-362c0-8.284-6.716-15-15-15zm-449.802 311.542h47.467v50.458h-47.467zm77.467-76.521h47.467v126.979h-47.467c0-1.371 0-124.688 0-126.979zm77.467-85.021h47.467v212h-47.467c0-9.201 0-200.164 0-212zm77.467 85.021h47.467v126.979h-47.467zm77.467-84.021h47.467v211h-47.467c0-7.031 0-203.995 0-211zm77.466 211c0-10.899 0-327.713 0-332h47.468v332z"/>
    <path d="m93.682 219.825 91.319-91.319 87.343 69.485c5.97 4.75 14.554 4.262 19.945-1.132l145.646-145.646v12.85c0 8.284 6.716 15 15 15s15-6.716 15-15v-49.063c0-8.263-6.685-14.927-14.87-14.993-.044 0-.086-.007-.13-.007h-49.063c-8.284 0-15 6.716-15 15s6.716 15 15 15h12.85l-136.178 136.178-87.343-69.486c-5.97-4.749-14.552-4.261-19.945 1.132l-100.787 100.788c-5.858 5.858-5.858 15.355 0 21.213 5.857 5.857 15.356 5.858 21.213 0z"/>
  </g>
</svg>
