<?xml version="1.0" encoding="utf-8"?>
<svg viewBox="0 0 500 500" xmlns="http://www.w3.org/2000/svg">
  <path class="cls-1" d="M 37.406 143.07 C 37.406 143.07 -53.569 32.602 48.236 4.442 C 150.041 -23.717 185.781 91.085 255.095 94.334 C 324.409 97.583 405.636 51.012 427.297 51.012 C 448.957 51.012 487.947 53.179 485.78 91.085 C 483.615 128.991 455.455 163.648 454.373 182.06 C 453.29 200.471 479.282 250.29 483.615 262.204 C 487.947 274.117 493.362 307.691 469.535 309.857 C 457.34 310.94 387.766 324.478 293.543 296.861 C 222.241 275.964 110.64 312.023 84.62 312.023 C 76.194 312.044 67.97 309.44 61.091 304.572 C 41.976 290.975 11.559 256.821 38.489 186.391 C 52.568 149.568 37.406 143.07 37.406 143.07 Z" style="fill: rgb(248, 248, 255);"/>
  <circle class="cls-2" cx="128.38" cy="133.323" r="27.617" style="fill: rgb(255, 255, 255);"/>
  <circle class="cls-2" cx="94.806" cy="138.197" r="18.412" style="fill: rgb(255, 255, 255);"/>
  <circle class="cls-2" cx="157.622" cy="138.738" r="17.87" style="fill: rgb(255, 255, 255);"/>
  <circle class="cls-2" cx="380.185" cy="217.8" r="27.617" style="fill: rgb(255, 255, 255);"/>
  <circle class="cls-2" cx="346.07" cy="220.507" r="18.412" style="fill: rgb(255, 255, 255);"/>
  <circle class="cls-2" cx="410.51" cy="222.673" r="17.87" style="fill: rgb(255, 255, 255);"/>
  <circle class="cls-2" cx="82.351" cy="254.623" r="18.412" style="fill: rgb(255, 255, 255);"/>
  <circle class="cls-2" cx="104.012" cy="257.872" r="12.996" style="fill: rgb(255, 255, 255);"/>
  <path class="cls-3" d="M 126.215 213.467 C 126.215 213.467 138.669 197.763 151.666 215.092 C 151.666 215.092 164.12 196.681 171.701 212.385" style="fill: none; stroke: rgb(186, 198, 242); stroke-linecap: round; stroke-linejoin: round; stroke-width: 5px;"/>
  <path class="cls-3" d="M 95.89 199.306 C 95.89 199.306 104.835 188.016 114.166 200.471 C 114.166 200.471 123.111 187.247 128.553 198.527" style="fill: none; stroke: rgb(186, 198, 242); stroke-linecap: round; stroke-linejoin: round; stroke-width: 5px;"/>
  <path class="cls-3" d="M 384.517 112.123 C 384.517 112.123 393.463 100.843 402.793 113.287 C 402.793 113.287 411.739 100.064 417.181 111.343" style="fill: none; stroke: rgb(186, 198, 242); stroke-linecap: round; stroke-linejoin: round; stroke-width: 5px;"/>
  <path class="cls-3" d="M 37.947 56.888 C 37.947 56.888 46.893 45.598 56.223 58.053 C 56.223 58.053 65.169 44.829 70.612 56.109" style="fill: none; stroke: rgb(186, 198, 242); stroke-linecap: round; stroke-linejoin: round; stroke-width: 5px;"/>
  <g id="humaaans/standing-23" stroke="none" stroke-width="1" fill="none" fill-rule="evenodd" transform="matrix(0.383626, 0, 0, 0.383626, -12.84375, 134.601578)" style="">
    <g id="humaaan-8" transform="translate(34.000000, 18.000000)">
      <g id="Head/Front/Curly" transform="translate(85.439497, 0.000000)">
        <g id="Head" stroke-width="1" transform="translate(56.316359, 32.329762)" fill="#B28B67">
          <path d="M8.61668863,35.9695996 C3.8111203,30.3288374 0.558611141,23.4160055 1.10210733,15.6699789 C2.66807119,-6.64848056 33.7361385,-1.73870383 39.7795208,9.52573796 C45.8229031,20.7901798 45.1047922,49.3633705 37.294259,51.3766405 C34.1794292,52.1795298 27.5439155,50.2127726 20.7905107,46.1421897 L25.0294931,76.1313749 L0,76.1313749 L8.61668863,35.9695996 Z"/>
        </g>
        <path d="M107.18432,26.2397085 C106.666011,24.4178338 105.271891,22.8579294 103.393081,22.3951495 C102.937473,22.2828961 102.466945,22.2375565 101.998137,22.2564594 C101.829973,22.2631713 101.782811,22.3116615 101.704229,22.194066 C101.645929,22.1068795 101.644622,21.8938789 101.620628,21.7914194 C101.545966,21.4728088 101.452603,21.1581705 101.337377,20.8516825 C100.944262,19.8063356 100.28364,18.8811868 99.4872363,18.1018509 C97.9976224,16.6438581 95.984887,15.6376184 93.8937763,15.4555747 C92.7492892,15.3559918 91.6131209,15.5419393 90.5311278,15.9142452 C89.9709499,16.1069732 89.4277534,16.3469585 88.8987194,16.6122847 C88.7394249,16.6921428 88.2226284,17.0832832 88.0627839,17.0579423 C87.886233,17.0299988 87.5314124,16.5912586 87.3878617,16.4811283 C85.6134838,15.1197734 83.4223413,14.5845322 81.2122237,14.6009011 C78.7176172,14.6193246 76.3154798,14.7439745 74.2349567,16.2647032 C73.7945419,16.5866698 73.375096,16.9391825 72.9757252,17.3103241 C72.7654179,17.5057231 72.5617106,17.7084504 72.3674221,17.9196018 C72.2502027,18.0469913 72.1360771,18.1772573 72.0262141,18.3110162 C71.8397631,18.5380571 71.8696695,18.6126416 71.6086932,18.4542266 C70.607413,17.8459077 69.4471133,17.5614046 68.2784261,17.7050259 C67.58446,17.7903632 66.9092628,17.9987066 66.2681658,18.2729364 C66.0498834,18.3662868 65.544637,18.7386612 65.3119859,18.7422912 C65.0811909,18.7458526 64.5830259,18.4006683 64.3452871,18.3129339 C63.0612368,17.8389218 61.6772234,17.7220797 60.3275853,17.9411074 C58.9353906,18.1671209 57.5678086,18.7225663 56.3882588,19.490122 C55.8209309,19.859346 55.3259283,20.2684305 54.9283451,20.817438 C54.7566754,21.0544783 54.6015059,21.3052163 54.4069424,21.5249974 C54.293023,21.6536881 54.0674531,21.7857348 54.0063341,21.9486016 C54.0429093,21.8510733 52.4837888,21.2500142 52.336663,21.2115919 C51.5528402,21.0068784 50.7547174,21.0483827 49.9871884,21.30097 C48.5439123,21.7759409 47.3026934,22.8410811 46.2825757,23.9331375 C45.7586292,24.494062 45.3001331,25.1140925 44.9109374,25.7746685 C44.7244177,26.0910875 44.5538481,26.416547 44.3977848,26.7489239 C44.3221594,26.9099414 44.2720404,27.1113674 44.1724211,27.256427 C44.0439954,27.4433334 43.9577137,27.4468948 43.7251313,27.5283967 C42.5439315,27.9422069 41.4671635,28.6426435 40.647178,29.5890923 C39.8177737,30.5466364 39.279596,31.7258107 39.0539573,32.967584 C39.0406885,33.0407302 39.0327822,33.3438623 38.9899508,33.3834489 C38.9312379,33.4379661 38.6937055,33.413858 38.6038488,33.4244053 C38.2926847,33.4609099 37.9837206,33.5152216 37.6788815,33.587409 C37.1169161,33.7204146 36.5699383,33.916156 36.0525232,34.1721677 C34.0355253,35.1701203 32.5931429,37.041033 31.8872143,39.1462465 C31.146498,41.3555632 31.1596293,43.8867095 32.0449276,46.0547958 C32.1879283,46.4049799 32.3580855,46.7448905 32.5579427,47.0664462 C32.6806621,47.2638313 32.7202623,47.2643108 32.6405807,47.4714214 C32.5517552,47.7018182 32.3895044,47.9257086 32.2840413,48.1508318 C31.9399458,48.8855128 31.6993883,49.6647116 31.5474501,50.4605533 C31.2981613,51.7660213 31.1746169,53.1379235 31.4205369,54.4533224 C31.5347312,55.0641069 31.7336948,55.6611936 32.0372276,56.2052013 C32.1919846,56.4825816 32.373073,56.7456477 32.5775366,56.9889889 C32.6836871,57.115351 32.7964377,57.2360286 32.9143446,57.3516379 C32.9817887,57.4176613 33.0702016,57.475466 33.1275394,57.5492286 C33.2675151,57.7290806 33.2969403,57.5812129 33.2247524,57.8453063 C33.1238269,58.2145303 32.8950257,58.578823 32.7549125,58.9381161 C32.6105368,59.3083674 32.4800486,59.6836868 32.360698,60.0627047 C32.1189717,60.8301919 31.9145769,61.6115824 31.78677,62.4063967 C31.5413313,63.9323991 31.5844377,65.5583954 32.3062477,66.958926 C32.614868,67.5579989 33.0576203,68.0835146 33.5946293,68.4923252 C33.8574619,68.692313 34.1421571,68.8646997 34.4408087,69.0062663 C34.5942594,69.0791386 34.7901979,69.1103695 34.8601858,69.2587851 C34.9355362,69.4183644 34.8236794,69.7352628 34.798173,69.9136765 C34.5762468,71.4657732 34.46494,73.0953994 34.9263236,74.6164021 C35.3512696,76.0173436 36.2868931,77.2542541 37.5016431,78.0731766 C39.858199,79.6617779 43.0347403,79.5721943 45.510853,78.3004229 C46.1562813,77.9688679 46.7601156,77.5572493 47.2987746,77.0717311 C48.6704129,78.9181933 51.4929587,78.8597722 53.4976502,78.3336401 C55.995213,77.6782008 57.9992858,75.9415263 59.153948,73.6597483 C60.7327999,75.5817539 64.0462919,74.9581619 65.1411412,72.8730842 C65.4091301,72.362773 65.5680809,71.8003417 65.6463188,71.2311985 C65.6875003,70.9319018 65.6612376,70.6300025 65.6921753,70.3331028 C65.731638,69.9547699 65.9843643,69.5871212 66.1296338,69.2211162 C66.4125415,68.5088311 66.5881987,67.7730542 66.5957612,67.0047451 C66.59968,66.6036053 66.5488735,66.2126704 66.510717,65.8147495 C66.4764106,65.4565523 66.5757548,65.1228056 66.6321989,64.7692657 C65.9916518,64.8747386 65.2112666,64.7020095 64.607776,64.5162675 C64.0155604,64.3340183 63.4608826,63.8539793 63.0428805,63.4155815 C62.0723317,62.3975616 61.4794287,61.0630544 61.0739391,59.7348481 C60.1838283,56.8196842 60.5486864,53.3221588 63.4808202,51.7222568 C64.8467522,50.97696 68.9389121,50.9794047 70.5657976,51.3477557 C72.2763966,51.7350608 74.2156378,55.509559 74.3110633,55.8643318 C74.3701198,56.0839074 74.3404197,56.3556716 74.5421332,56.501964 C74.9854355,56.8236566 75.7165268,56.2654031 76.0435034,55.989872 C76.6077376,55.5143532 77.0102021,54.8816523 77.3587664,54.2403217 C78.1182516,52.843147 78.7305422,51.3448142 79.1630507,49.8152504 C79.4964899,48.6360075 79.7096848,47.4199862 80.1454932,46.27081 C80.5791705,45.1273184 81.262824,44.1052577 82.3257732,43.4574892 C83.4820854,42.7528064 84.8075234,42.3816647 86.0769299,41.9388151 C87.3351989,41.4999379 88.5717427,40.9635324 89.547104,40.0322881 C89.7615363,39.8275061 89.9698499,39.6099167 90.1424821,39.3688356 C90.2787453,39.1785048 90.4134272,38.8141436 90.6210533,38.693466 C90.9438362,38.5057378 91.4149136,38.9939271 91.69404,39.1711765 C93.0711096,40.0457804 94.2199967,41.2655687 95.146614,42.5980898 C96.068075,43.9233511 96.8241777,45.1985469 97.4385996,46.6783878 C97.8943457,47.7759233 98.1787795,49.1815221 98.9803399,50.0809875 C99.3381855,50.4826067 101.998137,50.7255754 102.859716,50.3749421 C103.721295,50.0243088 104.686894,49.113855 104.976058,48.5432735 C105.272097,47.9592682 105.342841,47.3177321 105.216341,46.6783878 C105.141953,46.3022464 104.990015,45.9508981 104.906895,45.5814687 C104.836907,45.2711452 104.773382,44.977807 104.622338,44.6935094 C104.336061,44.1547753 103.846971,43.7675387 103.257162,43.6056308 C103.870965,43.0397066 104.37958,42.3626933 104.731513,41.6058903 C105.097196,40.8196371 105.407123,39.8634628 105.495055,39.000502 C105.566555,38.2995861 105.456211,37.5733977 105.072515,36.9710373 C104.669982,36.3391582 103.956903,35.9269232 103.339937,35.5327693 C104.282367,34.7954172 105.088946,33.8986913 105.752043,32.9058754 C107.041594,30.9751718 107.839235,28.5414853 107.18432,26.2397085 Z" id="hair" fill="#191847"/>
      </g>
      <g id="Bottom/Standing/Skinny-Jeans-Walk" transform="translate(0.000000, 194.763541)">
        <polygon id="Leg" fill="#1F28CF" points="133.49063 0 183.634758 132.684377 218.782099 230.479916 238.82308 230.479916 190.509575 1.02353644e-13"/>
        <path d="M121.097514,0 C120.552445,45.5267591 120.946508,106.821151 119.676509,109.659057 C118.829844,111.550995 92.4953159,133.107162 40.6729263,174.327559 L51.0027861,191.89278 C112.527888,152.21665 144.863197,129.735517 148.008713,124.44938 C152.726988,116.520175 176.431228,43.5545895 188.764094,0 L121.097514,0 Z" id="Leg" fill="#2B44FF"/>
        <g id="Accessories/Shoe/Flat-Pointy" transform="translate(58.923598, 197.107258) rotate(50.000000) translate(-58.923598, -197.107258) translate(27.115284, 176.249347)" fill="#191847">
          <path d="M0,41.7158218 L1.04289555,19.8150154 L22.943702,19.8150154 C33.3284421,27.1152842 46.8860842,33.0250256 63.6166283,37.5442397 L63.6166283,41.7158218 L23.9865976,41.7158218 L10.4289555,39.6300307 L10.4289555,41.7158218 L0,41.7158218 Z" id="Shoe"/>
        </g>
        <g id="Accessories/Shoe/Flat-Pointy" transform="translate(216.922274, 207.536214)" fill="#191847">
          <path d="M0,41.7158218 L1.04289555,19.8150154 L22.943702,19.8150154 C33.3284421,27.1152842 46.8860842,33.0250256 63.6166283,37.5442397 L63.6166283,41.7158218 L23.9865976,41.7158218 L10.4289555,39.6300307 L10.4289555,41.7158218 L0,41.7158218 Z" id="Shoe"/>
        </g>
      </g>
      <g id="Body/Hoodie" transform="translate(22.922792, 85.404334)">
        <path d="M198.964869,96.1669474 L232.231433,120.595314 C241.254011,123.029931 248.792082,126.059006 254.845649,129.682538 C256.275606,130.985537 258.003844,133.624326 252.073465,133.168278 C246.143085,132.712229 239.884706,132.499245 239.066429,134.522006 C238.248152,136.544766 241.836896,138.963766 240.182801,141.693 C239.080072,143.512489 233.870334,138.950187 224.553589,128.006095 L191.610963,114.34562 L198.964869,96.1669474 Z M71.2380339,97.0100305 L93.0318307,97.0957353 C79.5751668,140.53616 72.3105679,163.585377 71.2380339,166.243387 C68.8248325,172.223909 73.9314912,181.33214 76.1153011,186.226836 C69.002705,189.409511 69.7605597,177.622767 60.788211,181.797022 C52.5986673,185.607089 46.3689017,192.510675 36.9070672,186.672433 C35.7437902,185.954655 34.4690282,183.252093 37.5490144,181.140184 C45.2223833,175.878647 56.2801726,166.67001 57.7742541,163.638916 C59.8117011,159.505478 64.2996277,137.295849 71.2380339,97.0100305 Z" id="Skin" fill="#B28B67"/>
        <path d="M127.996379,9.99126343 L136.845297,7.66438547 C172.696724,33.5424787 191.22711,87.6619834 234.647976,113.391279 L225.880465,126.441219 C154.233028,123.866416 130.7617,57.9296166 127.996379,9.99126343 Z" id="Coat-Back" fill="#E87613" transform="translate(181.322177, 67.052802) rotate(5.000000) translate(-181.322177, -67.052802) "/>
        <path d="M93.8605991,118.890092 C130.019619,118.890092 156.617436,118.890092 173.65405,118.890092 C177.300204,118.890092 176.613156,113.625177 176.086082,110.968472 C170.003016,80.3068849 146.257032,47.2551777 146.257032,3.60918021 L123.240844,0 C104.2035,30.6177517 97.6200564,68.3144034 93.8605991,118.890092 Z" id="Shirt" fill="#DDE3E9"/>
        <path d="M94.5018144,30.0958364 C91.159002,29.1349436 88.5118406,26.8938416 86.5603303,23.3725304 C78.1478728,8.19306644 81.186005,-0.164352814 90.176254,-2.91148372 C99.1665031,-5.65861462 107.183923,-2.17603713e-14 121.507793,-7.54951657e-15 C122.286892,-6.66133815e-15 123.000459,0.0488414414 123.648494,0.146524324 L130.853759,0.557677906 C151.526451,70.6198746 157.227856,117.364282 147.957974,140.790899 L85.1543132,140.790899 C81.433263,149.467655 77.8725321,156.767924 74.4721203,162.691705 L57.359255,162.691705 C55.7486939,110.616897 68.1295471,66.4182737 94.5018144,30.0958364 Z" id="Coat-Front" fill="#FF9B21"/>
        <path d="M98.8302349,104.808535 C100.805398,121.334664 104.015698,133.328785 108.461137,140.790899 L85.1543132,140.790899 C89.4948142,130.669705 94.0534546,118.675583 98.8302345,104.808534 Z" id="Shade" fill-opacity="0.1" fill="#000000"/>
      </g>
    </g>
  </g>
  <g id="humaaans/standing-14" stroke="none" stroke-width="1" fill="none" fill-rule="evenodd" transform="matrix(0.370131, 0, 0, 0.370131, 109.64077, 133.587677)" style="">
    <g id="humaaan-7" transform="translate(26.000000, -1.000000)">
      <g id="Head/Front/Hijab-1" transform="translate(207.705688, 79.110322) rotate(20.000000) translate(-207.705688, -79.110322) translate(133.956747, 22.827274)">
        <g id="g-1" transform="translate(58.494090, 33.579940)" fill="#B28B67">
          <path d="M8.94989243,37.3605292 C3.95849475,31.501641 0.580212404,24.3214928 1.14472537,16.2759306 C2.77124441,-6.90557456 35.0407011,-1.80593879 41.3177785,9.89409432 C47.5948559,21.5941274 46.8489759,51.2722317 38.7364127,53.363354 C35.5011336,54.1972907 28.6090274,52.1544798 21.5944711,47.9264891 L25.9973733,79.0753437 L0,79.0753437 L8.94989243,37.3605292 Z"/>
        </g>
        <g id="Hijab" transform="translate(38.996060, 30.330269)">
          <path d="M54.9573641,5.42854599 C54.3618841,5.0731358 53.116036,4.32346981 52.4848776,4.05176683 C52.3355179,3.98638648 51.2897421,3.24030641 51.2616191,3.24976074 C50.4698378,3.51688201 48.1770637,4.50311226 47.9802727,5.35531127 C47.9497711,5.41989164 47.9198292,5.48047209 47.8906568,5.53341636 C47.5657733,6.12402125 47.2676835,6.72931672 46.9833055,7.34195748 C46.3592828,8.68679995 45.8206085,10.0923683 45.3061395,11.4868824 C44.3040654,14.2027486 43.4335118,16.9818861 42.6331257,19.7673507 C41.8182584,22.6029232 41.1266566,25.471586 40.3524347,28.3188673 C39.2383583,32.4159388 37.8124805,36.4125034 36.7060994,40.5079022 C35.9995966,43.1228979 35.6066442,45.7685838 35.792172,48.4600142 C35.7939909,48.4923771 35.7950403,48.5243037 35.7979785,48.5571756 C35.7990978,48.5706299 35.8007768,48.5839387 35.8019661,48.5973929 C35.833517,49.0111291 35.8784998,49.4258834 35.9384536,49.841874 C35.9909218,50.1975751 36.04353,50.5545853 36.0996361,50.9115227 C37.1102451,48.8962953 37.8818086,46.6757634 38.7005935,44.5681745 C38.7806951,44.3618519 38.8570889,44.154002 38.9317337,43.9454976 C39.1957541,43.518089 39.4649513,43.0937349 39.7371567,42.6709808 C41.4537788,40.0051499 43.1771868,37.3491369 44.8232915,34.6350889 C47.7840413,29.7536714 50.7171578,24.7690563 54.2273555,20.286539 C55.2638488,18.9628597 56.3244775,17.6594708 57.3479586,16.3249554 C57.9303565,15.5655543 58.4976435,14.7934262 59.0465316,14.007553 C59.4389244,13.445602 61.1448808,11.4868824 60.5271164,10.3100362 C60.211042,9.70791177 56.5021001,6.35063433 54.9573641,5.42854599 Z" id="Front" fill="#2C2C2C"/>
          <path d="M52.6728632,4.15001051 C53.2519553,4.34461517 52.9702206,3.13957354 52.4093228,2.71551695 C49.810803,0.750953282 39.8763452,0.0380536129 31.2311678,1.83268892 C25.4397091,3.0349264 18.7040965,6.0272341 14.0782865,9.87408202 C9.90824309,13.3420244 7.04039681,18.9013178 5.56389551,24.2725288 C4.01361903,29.9124052 3.77882154,35.7921949 4.64252562,41.5756147 C4.83227393,42.8459775 5.23999757,44.0565968 5.46716806,45.3000136 C5.72299326,46.7002663 5.8542204,48.048433 6.31027212,49.4107589 C6.58954856,50.2447845 7.06413317,51.0624112 7.3024234,51.9012047 C7.57442924,52.8583293 7.40863113,53.7437906 7.2102579,54.7173141 C6.88700149,56.3040214 6.48619204,57.887478 5.91659071,59.4028832 C5.06122643,61.6784834 4.02324188,63.8097455 3.37245223,66.1711683 C2.50653845,69.3132303 -1.11562733,79.5380277 1.53144974,82.3250154 L51.9215112,82.3250154 C50.6526495,78.8638636 46.8439182,74.7904194 46.0728785,71.0853088 C45.6187514,68.9026832 45.4027006,64.1361316 45.3551566,63.962897 C44.2196108,56.1351936 42.0023595,52.3971247 40.613683,51.0405328 C39.2250065,49.683941 37.375392,49.2667821 37.2800902,48.0900439 C36.8861949,43.2231492 38.8215279,38.5599026 40.2406485,34.0177324 C41.9319888,28.604188 43.1714829,23.056347 44.915143,17.6611518 C45.6872518,15.2720606 49.6660693,3.13957354 52.6728632,4.15001051 Z" id="Turban" fill="#8991DC"/>
          <path d="M35.0055017,9.74901498 C33.105318,15.7781861 32.6966305,18.9965357 33.105318,27.2345325 L32.1731792,27.2345325 C30.4318467,19.4603397 31.9816466,12.1417559 33.8339112,9.74901498 L35.0055017,9.74901498 Z M9.51297004,25.3087768 C13.0539988,33.9009817 14.6685092,38.9748053 24.5568412,45.9277725 L23.7932778,46.4624253 C13.976973,40.8991285 11.1183637,34.2630319 8.76815887,25.666722 L9.51297004,25.3087768 Z M24.0621457,16.5649905 C25.6704719,28.7607509 26.1400207,35.7269788 34.5184954,49.067483 L33.6270866,49.340014 C25.0041927,37.7245117 23.6373319,28.2440849 23.229943,16.6319705 L24.0621457,16.5649905 Z M14.8070785,52.7923434 L15.5697434,51.8652288 C25.9766397,55.1249007 24.8174124,61.8546482 37.9249764,68.6700185 L36.8296121,69.3337104 C25.3522346,64.5970433 22.6692413,54.4377768 14.8070785,52.7923434 Z" id="path-1" fill-opacity="0.2" fill="#000000"/>
        </g>
      </g>
      <g id="Bottom/Standing/Jogging" transform="translate(0.000000, 222.255541)">
        <polygon id="polygon-1" fill="#997659" points="140.819105 0 221.309587 134.565555 281.65429 248.32939 294.652004 248.32939 193.543607 5.51402013e-13"/>
        <g id="Accessories/Shoe/Flat-Sneaker" transform="translate(270.805972, 215.561553)" fill="#E4E4E4">
          <path d="M2.90101634,27.5159711 C1.68915471,30.7510048 1.08322389,33.1715576 1.08322389,34.7776295 C1.08322389,36.7309922 1.40863973,39.5814342 2.05947141,43.3289555 C4.32550923,43.3289555 24.6907726,43.3289555 63.1552616,43.3289555 C64.7429247,38.080202 63.8264335,35.2465689 60.4057881,34.8280561 C56.9851428,34.4095434 54.1435546,34.0316599 51.8810236,33.6944057 L23.4842859,21.0349984 C22.9378762,20.7914062 22.2974531,21.0368884 22.053861,21.5832981 C22.0496938,21.5926456 22.0456593,21.6020518 22.0417587,21.6115137 L20.2164382,26.0392887 C17.0498153,27.5167596 14.4766054,28.2554951 12.4968086,28.2554951 C10.8882707,28.2554951 8.66686616,27.6058583 5.8325951,26.3065849 L5.83260102,26.3065719 C4.74493521,25.8079692 3.45901046,26.2854991 2.96040771,27.373165 C2.9389172,27.420045 2.91910746,27.4676773 2.90101634,27.5159711 Z" id="shoe"/>
        </g>
        <path d="M264.89488,230.11238 L289.960742,222.529813 C278.978705,189.699447 265.518659,153.570834 249.580605,114.143973 C233.64255,74.7171116 216.525672,36.6691207 198.229971,2.84217094e-14 L127.43487,2.84217094e-14 C147.775755,46.3847539 169.339822,88.531257 192.127069,126.439509 C214.914315,164.347762 239.170253,198.905385 264.89488,230.11238 Z" id="Pant" fill="#DB2721"/>
        <path d="M135.52932,2.84217094e-14 C127.93253,47.2872601 113.280403,107.702209 111.897637,109.566632 C110.975793,110.809581 77.7891793,121.930063 12.3377948,142.928077 L15.1454578,154.389667 C93.1960803,143.128296 134.322102,134.391261 138.523523,128.178562 C144.825654,118.859514 176.293047,45.2388276 188.480956,2.84217094e-14 L135.52932,2.84217094e-14 Z" id="polygon-1" fill="#B28B67"/>
        <path d="M35.3450622,133.02041 L40.2904549,151.480129 C98.667773,156.600183 134.436845,152.900622 147.597671,140.381446 C160.758498,127.862271 175.757955,81.0684551 192.596043,-1.13686838e-13 L125.088686,-1.13686838e-13 C114.42047,66.3841564 108.456243,100.969601 107.196005,103.756335 C105.935767,106.543068 81.9854524,116.29776 35.3450622,133.02041 Z" id="Pant" fill="#FF4133"/>
        <g id="Accessories/Shoe/Flat-Sneaker" transform="translate(26.538985, 166.816479) rotate(80.000000) translate(-26.538985, -166.816479) translate(-6.499343, 145.152001)" fill="#E4E4E4">
          <path d="M2.90101634,27.5159711 C1.68915471,30.7510048 1.08322389,33.1715576 1.08322389,34.7776295 C1.08322389,36.7309922 1.40863973,39.5814342 2.05947141,43.3289555 C4.32550923,43.3289555 24.6907726,43.3289555 63.1552616,43.3289555 C64.7429247,38.080202 63.8264335,35.2465689 60.4057881,34.8280561 C56.9851428,34.4095434 54.1435546,34.0316599 51.8810236,33.6944057 L23.4842859,21.0349984 C22.9378762,20.7914062 22.2974531,21.0368884 22.053861,21.5832981 C22.0496938,21.5926456 22.0456593,21.6020518 22.0417587,21.6115137 L20.2164382,26.0392887 C17.0498153,27.5167596 14.4766054,28.2554951 12.4968086,28.2554951 C10.8882707,28.2554951 8.66686616,27.6058583 5.8325951,26.3065849 L5.83260102,26.3065719 C4.74493521,25.8079692 3.45901046,26.2854991 2.96040771,27.373165 C2.9389172,27.420045 2.91910746,27.4676773 2.90101634,27.5159711 Z" id="shoe"/>
        </g>
      </g>
      <g id="Body/Lab-Coat" transform="translate(167.600715, 210.103120) rotate(15.000000) translate(-167.600715, -210.103120) translate(28.779179, 108.901871)">
        <path d="M206.945687,95.511662 L239.762602,123.09659 C248.967965,126.257267 256.586395,129.923823 262.61789,134.096257 C264.010126,135.54279 265.615405,138.388076 259.481684,137.490311 C253.347963,136.592546 246.855487,135.921741 245.857491,137.948284 C244.859494,139.974826 248.415459,142.727638 246.496942,145.422319 C245.21793,147.218773 240.132178,142.139273 231.239686,130.183817 L197.976636,113.72432 L206.945687,95.511662 Z M58.3433969,83.5750219 L77.5984812,86.3475815 C56.929855,130.809941 45.8491595,154.324212 44.3563946,156.890395 C40.9976737,162.664304 44.947755,172.721085 46.49194,178.044905 C38.688056,180.279259 41.1803524,168.324603 31.312838,171.306323 C22.3062284,174.027899 14.8738503,180.197575 5.9536325,172.861149 C4.85694413,171.959179 3.93311862,169.009756 7.41889887,167.291262 C16.1032487,163.009867 28.8538821,155.175461 30.8359256,152.288065 C33.538796,148.350586 42.7079531,125.446238 58.3433969,83.5750219 Z" id="path-2" fill="#B28B67"/>
        <path d="M133.740168,9.96224988 L145.285037,5.02518322 C164.902013,43.5489422 192.328278,80.0837406 235.359162,109.205342 L226.911067,127.068909 C189.798247,109.535816 154.972794,96.4403406 138.702546,66.6824917 C133.24183,56.6949883 134.455215,22.4130163 133.740168,9.96224988 Z" id="path-3" fill="#C5CFD6" transform="translate(184.549665, 66.047046) rotate(5.000000) translate(-184.549665, -66.047046) "/>
        <path d="M97.8420998,118.567659 C132.019787,122.160618 158.921376,122.160618 178.546866,118.567659 C180.978333,118.122515 181.361929,114.08622 180.234339,111.346852 C162.674833,68.6877568 150.633676,31.4652984 150.633676,1.83525203 C147.411728,3.44577902 141.773015,3.68713662 133.717536,2.55932483 C112.06856,33.0940403 102.117297,68.1291327 97.8420998,118.567659 Z" id="path-4" fill="#323337"/>
        <path d="M128.335565,7.16093851e-14 L137.357724,6.61692923e-14 C139.458442,12.2500559 146.084248,178.134529 166.53877,232.399042 L55.8627494,232.399042 C58.2621741,182.688232 77.1896665,122.973409 96.3633894,73.0035192 C79.4091218,88.3862479 64.6320837,114.451148 52.032275,151.198219 L31.3014502,145.921916 C46.7154981,80.0666734 78.406797,31.6628239 126.375347,0.710367798 C126.479218,0.472446517 126.582604,0.235654655 126.685497,7.26085858e-14 L127.483912,7.21644966e-14 C127.777782,-0.187006459 128.072257,-0.373364714 128.367337,-0.559074766 L128.335565,7.26085858e-14 Z" id="path-5" fill="#DDE3E9"/>
      </g>
    </g>
  </g>
  <g id="humaaans/standing-18" stroke="none" stroke-width="1" fill="none" fill-rule="evenodd" transform="matrix(0.356881, 0, 0, 0.356881, 359.45166, 144.042206)" style="">
    <g id="humaaan-2" transform="translate(28.000000, 9.000000)">
      <g id="Head/Front/Airy" transform="translate(88.812991, 0.000000)">
        <g id="g-2" stroke-width="1" transform="translate(58.494090, 33.579940)" fill="#B28B67">
          <path d="M8.94989243,37.3605292 C3.95849475,31.501641 0.580212404,24.3214928 1.14472537,16.2759306 C2.77124441,-6.90557456 35.0407011,-1.80593879 41.3177785,9.89409432 C47.5948559,21.5941274 46.8489759,51.2722317 38.7364127,53.363354 C35.5011336,54.1972907 28.6090274,52.1544798 21.5944711,47.9264891 L25.9973733,79.0753437 L0,79.0753437 L8.94989243,37.3605292 Z"/>
        </g>
        <path d="M84.9940249,29.9893314 C81.5676464,29.4274427 72.3419711,29.0411286 70.6405918,29.041378 C69.5533301,29.041378 68.3750696,29.2897762 67.7311163,28.2914448 C67.2037707,27.4739254 67.3969567,26.091275 67.2395735,25.1425734 C67.05683,24.0404933 66.7972597,22.9526288 66.5347057,21.8675077 C65.7875707,18.7797383 64.6577932,15.8421051 63.0769997,13.0840369 C60.1108365,7.90957277 55.7655192,3.85639217 50.2797332,1.49785606 C44.2218482,-1.10633492 37.3668535,-1.70264029 30.8507422,-1.17441997 C23.8776479,-0.609289084 17.5654138,1.69263418 10.981675,3.85888613 C4.70773004,5.92313519 -1.86357718,6.73566672 -8.42543645,5.72760888 C-15.0367732,4.71206917 -20.0322596,1.12875027 -25.6087957,-2.2722603 C-31.3176033,-5.75407511 -37.8416707,-8.03130819 -44.5905002,-7.5078264 C-50.8903028,-7.01901063 -56.6965736,-4.4178124 -61.9058823,-0.942980669 C-66.7797883,2.30814302 -70.8013886,6.2196668 -73.0718834,11.7248298 C-75.5144305,17.6467331 -75.5121929,24.1469853 -71.4955652,29.3805563 C-65.6736307,36.9666778 -54.8654091,38.9284252 -45.8734342,38.7333977 C-40.6723303,38.6209202 -35.5642143,37.6714704 -30.6537596,35.9444044 C-24.1050777,33.6409848 -18.4459962,29.7369429 -12.3194892,26.5693668 C-9.44432472,25.0829678 -6.47244294,23.8621753 -3.35734994,22.9828057 C-0.334498886,22.1291239 2.64285276,21.7375725 5.3797786,23.5636486 C8.27508214,25.4954684 10.8695426,27.3931211 14.1817997,28.6024414 C17.359299,29.7626306 20.7250117,30.4115585 24.1103662,30.385372 C30.6970885,30.3344952 37.1900771,28.2822172 43.5873429,26.9075475 C48.8041105,25.7867627 54.3858679,24.6697189 59.7043254,25.7471088 C61.9236023,26.1967694 65.1652483,27.1250206 65.9668334,29.431433 C52.4758875,31.8765095 47.1773328,48.5610887 50.9806353,60.809166 C53.0333297,67.4199006 65.3723576,75.1477794 70.169934,71.6724164 C73.2093367,69.470674 71.3641069,66.5801849 70.169934,64.6720576 C67.8830296,61.0179103 67.100589,56.3240319 71.3322821,53.7799453 C74.9824282,51.585761 78.8203054,56.7963664 78.8929055,56.7906303 C79.8961301,56.7115718 88.5648619,51.8090231 94.5374603,44.6549613 C100.429451,45.0042323 101.323351,41.1192053 99.9164591,37.9419834 C98.5095672,34.7647615 89.7282005,30.7661994 84.9940249,29.9893314 Z" id="path-6" fill="#191847"/>
      </g>
      <g id="g-3" transform="translate(0.000000, 202.587623)">
        <polygon id="polygon-2" fill="#997659" points="140.819105 0 221.309587 134.565555 281.65429 248.32939 294.652004 248.32939 193.543607 5.51402013e-13"/>
        <g id="g-4" transform="translate(270.805972, 215.561553)" fill="#E4E4E4">
          <path d="M2.90101634,27.5159711 C1.68915471,30.7510048 1.08322389,33.1715576 1.08322389,34.7776295 C1.08322389,36.7309922 1.40863973,39.5814342 2.05947141,43.3289555 C4.32550923,43.3289555 24.6907726,43.3289555 63.1552616,43.3289555 C64.7429247,38.080202 63.8264335,35.2465689 60.4057881,34.8280561 C56.9851428,34.4095434 54.1435546,34.0316599 51.8810236,33.6944057 L23.4842859,21.0349984 C22.9378762,20.7914062 22.2974531,21.0368884 22.053861,21.5832981 C22.0496938,21.5926456 22.0456593,21.6020518 22.0417587,21.6115137 L20.2164382,26.0392887 C17.0498153,27.5167596 14.4766054,28.2554951 12.4968086,28.2554951 C10.8882707,28.2554951 8.66686616,27.6058583 5.8325951,26.3065849 L5.83260102,26.3065719 C4.74493521,25.8079692 3.45901046,26.2854991 2.96040771,27.373165 C2.9389172,27.420045 2.91910746,27.4676773 2.90101634,27.5159711 Z" id="path-7"/>
        </g>
        <path d="M264.89488,230.11238 L289.960742,222.529813 C278.978705,189.699447 265.518659,153.570834 249.580605,114.143973 C233.64255,74.7171116 216.525672,36.6691207 198.229971,2.84217094e-14 L127.43487,2.84217094e-14 C147.775755,46.3847539 169.339822,88.531257 192.127069,126.439509 C214.914315,164.347762 239.170253,198.905385 264.89488,230.11238 Z" id="path-8" fill="#DB2721"/>
        <path d="M135.52932,2.84217094e-14 C127.93253,47.2872601 113.280403,107.702209 111.897637,109.566632 C110.975793,110.809581 77.7891793,121.930063 12.3377948,142.928077 L15.1454578,154.389667 C93.1960803,143.128296 134.322102,134.391261 138.523523,128.178562 C144.825654,118.859514 176.293047,45.2388276 188.480956,2.84217094e-14 L135.52932,2.84217094e-14 Z" id="polygon-2" fill="#B28B67"/>
        <path d="M35.3450622,133.02041 L40.2904549,151.480129 C98.667773,156.600183 134.436845,152.900622 147.597671,140.381446 C160.758498,127.862271 175.757955,81.0684551 192.596043,-1.13686838e-13 L125.088686,-1.13686838e-13 C114.42047,66.3841564 108.456243,100.969601 107.196005,103.756335 C105.935767,106.543068 81.9854524,116.29776 35.3450622,133.02041 Z" id="path-8" fill="#FF4133"/>
        <g id="g-4" transform="translate(26.538985, 166.816479) rotate(80.000000) translate(-26.538985, -166.816479) translate(-6.499343, 145.152001)" fill="#E4E4E4">
          <path d="M2.90101634,27.5159711 C1.68915471,30.7510048 1.08322389,33.1715576 1.08322389,34.7776295 C1.08322389,36.7309922 1.40863973,39.5814342 2.05947141,43.3289555 C4.32550923,43.3289555 24.6907726,43.3289555 63.1552616,43.3289555 C64.7429247,38.080202 63.8264335,35.2465689 60.4057881,34.8280561 C56.9851428,34.4095434 54.1435546,34.0316599 51.8810236,33.6944057 L23.4842859,21.0349984 C22.9378762,20.7914062 22.2974531,21.0368884 22.053861,21.5832981 C22.0496938,21.5926456 22.0456593,21.6020518 22.0417587,21.6115137 L20.2164382,26.0392887 C17.0498153,27.5167596 14.4766054,28.2554951 12.4968086,28.2554951 C10.8882707,28.2554951 8.66686616,27.6058583 5.8325951,26.3065849 L5.83260102,26.3065719 C4.74493521,25.8079692 3.45901046,26.2854991 2.96040771,27.373165 C2.9389172,27.420045 2.91910746,27.4676773 2.90101634,27.5159711 Z" id="path-7"/>
        </g>
      </g>
      <g id="Body/Jacket" transform="translate(23.827876, 88.835214)">
        <path d="M210.19354,96.5396333 L240.879002,126.47455 C249.807341,130.282961 257.122842,134.488215 262.825507,139.090312 C264.107951,140.637234 265.5041,143.601216 259.470265,142.274876 C253.43643,140.948537 247.030091,139.824791 245.896043,141.787038 C244.761995,143.749286 248.10356,146.756146 246.007699,149.324223 C244.610458,151.036274 239.911426,145.590574 231.910604,132.987123 L200.001781,114.17447 L210.19354,96.5396333 Z M73.9927793,100.761368 L96.6293333,100.850387 C82.6523057,145.970635 75.1067877,169.911156 73.9927793,172.67195 C71.4862604,178.883737 76.7903914,188.344179 79.0586484,193.428151 C71.6710111,196.733899 72.4581718,184.491366 63.1388661,188.827038 C54.632636,192.784439 48.161968,199.954983 38.3342483,193.890979 C37.1259879,193.145445 35.8019313,190.338376 39.0010193,188.1448 C46.9711142,182.679802 58.4565037,173.115071 60.0083607,169.966765 C62.124595,165.673489 66.7860678,142.605023 73.9927793,100.761368 Z" id="path-9" fill="#B28B67"/>
        <path d="M132.173885,10.0003227 L141.364987,7.58346535 C160.941262,46.3099933 192.179651,80.3211632 235.080154,109.616975 L208.045922,149.013749 C163.933825,105.815544 135.04614,59.7924322 132.173885,10.0003227 Z" id="path-10" fill="#191847" transform="translate(183.627020, 78.298607) rotate(5.000000) translate(-183.627020, -78.298607) "/>
        <path d="M97.4901498,123.487523 L180.898389,123.487523 C161.574617,76.502846 151.912731,36.5899202 151.912731,3.74874572 L126.752585,0 C106.979075,31.8017275 101.394984,70.9560932 97.4901498,123.487523 Z" id="path-11" fill="#DDE3E9"/>
        <path d="M126.219885,0.017786392 C126.223188,0.0118565639 126.226491,0.00592776645 126.229794,-1.5232346e-14 L127.872145,-4.26345402e-14 C129.83736,0.0676723928 132.830635,0.189597645 136.851969,0.365775757 L142.931563,17.7398277 C143.574649,38.9228588 147.330175,81.6123822 154.198141,145.808398 L99.5223662,145.808398 C99.6656983,150.242152 99.90203,154.717323 100.231361,159.233911 L59.5773138,159.233911 C65.6584422,90.6268035 87.8659627,37.548833 126.199875,1.42108547e-14 L126.219885,0.0177863852 Z" id="path-12" fill="#2F3676"/>
        <path d="M103.133996,89.0768596 C104.690061,116.715091 108.585973,135.767879 114.821732,146.235225 L99.5364474,146.235225 C98.8672632,126.350326 100.066446,107.29756 103.133994,89.0768671 Z" id="path-13" fill-opacity="0.1" fill="#000000"/>
        <polygon id="Light" fill-opacity="0.2" fill="#FFFFFF" points="111.692189 112.655284 138.652658 100.121595 138.652658 112.655284"/>
      </g>
    </g>
  </g>
  <g id="humaaans/standing-3" stroke="none" stroke-width="1" fill="none" fill-rule="evenodd" transform="matrix(0.373066, 0, 0, 0.373066, 233.292526, 135.531113)" style="">
    <g id="humaaan-12" transform="translate(24.000000, 10.000000)">
      <g id="Head/Front/Pony" transform="translate(192.496667, 70.916479) rotate(15.000000) translate(-192.496667, -70.916479) translate(121.550000, 16.686230)">
        <g id="g-5" stroke-width="1" transform="translate(56.316359, 32.329762)" fill="#D4A181">
          <path d="M8.61668863,35.9695996 C3.8111203,30.3288374 0.558611141,23.4160055 1.10210733,15.6699789 C2.66807119,-6.64848056 33.7361385,-1.73870383 39.7795208,9.52573796 C45.8229031,20.7901798 45.1047922,49.3633705 37.294259,51.3766405 C34.1794292,52.1795298 27.5439155,50.2127726 20.7905107,46.1421897 L25.0294931,76.1313749 L0,76.1313749 L8.61668863,35.9695996 Z"/>
        </g>
        <path d="M73.5958055,66.7300142 C70.4920461,72.6877108 66.1993682,77.1742704 61.910804,77.1742704 C53.7650435,77.1742704 47.9731951,66.2836037 47.9731951,54.5742741 C47.9731951,54.1628695 47.9813468,53.7542017 47.9974305,53.3485863 C39.3806687,59.2616067 32.7398364,70.9168971 21.3384204,70.9168971 C5.82689641,70.9168971 -0.333376422,39.6300307 21.3384204,39.6300307 C36.0768888,39.6300307 43.3266534,41.7788973 49.5745342,44.9565643 C50.8068196,41.4825635 52.6858517,38.5617811 54.9835347,36.522099 C55.5362914,35.8998584 56.3837294,35.3045199 57.4770187,34.7526108 C58.1454127,34.3869182 58.8370821,34.0890762 59.5479538,33.8649395 C63.3159666,32.4802383 68.7736991,31.5035692 74.8701001,31.2906782 C76.0084928,31.2509247 77.1265278,31.2392917 78.2172168,31.2539461 C78.2349678,25.5093324 82.8973457,20.8579109 88.6461214,20.8579109 C94.4058745,20.8579109 99.0750769,25.5271133 99.0750769,31.2868664 C99.0750769,36.8570669 94.7081429,41.4073153 89.2111081,41.7007783 C86.0665277,42.6710651 82.0263041,43.3834689 77.5457374,43.683886 C77.9807547,45.3198126 78.2171659,47.1782869 78.2171659,49.2784438 C78.2171659,51.1328609 78.0124871,53.0995714 77.6356035,55.096496 C76.6638219,53.9414273 75.3644328,53.1876728 74.0455838,53.1876728 C70.3562718,53.1876728 67.7882105,56.2226544 67.7882105,59.4450461 C67.7882105,63.5347656 70.1492098,66.4933786 73.5958055,66.7300142 Z" id="path-14" fill="#191847"/>
      </g>
      <g id="Bottom/Standing/Sweatpants" transform="translate(0.000000, 211.706546)">
        <polygon id="polygon-3" fill="#BA8B72" points="133.49063 9.9475983e-14 171.692767 131.641481 189.661145 230.479916 207.695982 230.479916 189.693287 9.9475983e-14"/>
        <path d="M116.322199,0 C118.987817,68.3870665 117.936536,105.687231 117.339939,111.900493 C116.743342,118.113756 113.356416,159.726021 90.276884,232.565707 L109.034701,232.565707 C139.599745,162.688474 150.269709,121.076209 153.775289,111.900493 C157.280868,102.724778 167.634408,65.4246134 182.750117,0 L116.322199,0 Z" id="polygon-3" fill="#D4A181"/>
        <path d="M132.670537,1.13686838e-13 C142.607509,45.2981944 159.794211,117.605619 184.230644,216.922274 L210.608646,216.922274 C212.556962,114.983226 204.268916,47.8902794 189.91609,1.13686838e-13 L132.670537,1.13686838e-13 Z" id="path-15" fill="#69A1AC"/>
        <path d="M116.188908,0 C118.799532,68.3870665 112.033935,135.76128 91.0765976,217.987026 L119.220475,217.987026 C149.841711,149.152689 171.788937,82.1109421 186.788408,0 L116.188908,0 Z" id="path-15" fill="#89C5CC"/>
        <g id="Accessories/Shoe/Flat-Simple" transform="translate(87.603226, 207.536214)" fill="#191847">
          <path d="M0,38.5871352 L1.03499318,21.9008065 C7.09473278,23.6731293 14.6846828,22.9778656 23.8048432,19.8150154 C33.6112156,26.7613376 45.956156,31.504481 60.8396644,34.0444457 L60.8396664,34.0444341 C61.9752066,34.2382212 62.7386484,35.315854 62.5448613,36.4513942 C62.532312,36.5249296 62.5158268,36.5977389 62.4954767,36.6695081 L61.0645978,41.7158218 L23.8048432,41.7158218 L2.06998637,41.7158218 L0,38.5871352 Z" id="path-16"/>
        </g>
        <g id="Accessories/Shoe/Flat-Simple" transform="translate(185.635407, 207.536214)" fill="#191847">
          <path d="M0,38.5871352 L1.03499318,21.9008065 C7.09473278,23.6731293 14.6846828,22.9778656 23.8048432,19.8150154 C33.6112156,26.7613376 45.956156,31.504481 60.8396644,34.0444457 L60.8396664,34.0444341 C61.9752066,34.2382212 62.7386484,35.315854 62.5448613,36.4513942 C62.532312,36.5249296 62.5158268,36.5977389 62.4954767,36.6695081 L61.0645978,41.7158218 L23.8048432,41.7158218 L2.06998637,41.7158218 L0,38.5871352 Z" id="path-16"/>
        </g>
      </g>
      <g id="Body/Pointing-Forward" transform="translate(167.500000, 199.713318) rotate(10.000000) translate(-167.500000, -199.713318) translate(33.953333, 102.203160)">
        <path d="M165.442905,44.5318824 L201.641581,24.7060096 C207.6612,17.5576911 213.5922,12.0060203 219.434584,8.05099706 C221.219828,7.3056868 224.341768,6.85457179 221.422161,12.0365862 C218.502554,17.2186007 215.664619,22.8006078 217.152044,24.3970743 C218.639469,25.9935408 222.348496,23.7633475 224.122972,26.4158901 C225.305955,28.1842519 218.969376,30.9777657 205.113232,34.7964314 L178.810482,58.8794236 L165.442905,44.5318824 Z M222.136751,61.2595172 L238.037282,52.5246066 C240.268352,44.0351284 242.935323,39.7637848 246.038198,39.710576 C248.42185,38.6014863 244.270736,49.3287349 248.789387,48.3984698 C253.308038,47.4682047 264.336775,39.2657356 266.237082,40.9311468 C269.048462,43.3950152 266.541662,50.9605193 263.588057,54.7239524 C258.067772,61.7578043 253.497213,64.1631694 242.200369,67.3130095 C236.293796,68.9599085 229.907746,72.2609757 223.042218,77.2162112 L222.136751,61.2595172 Z" id="path-17" fill="#D4A181"/>
        <path d="M148.985958,36.2409357 C161.529917,38.0920896 178.648308,38.0920896 198.258161,29.6037893 L202.784205,46.3173975 C188.561573,56.568277 169.692364,63.8528608 154.648576,61.0351451 C142.793241,58.8146299 138.988488,43.446554 148.985958,36.2409357 Z" id="Sleeve" fill="#2026A2" transform="translate(173.014579, 45.624657) rotate(-9.000000) translate(-173.014579, -45.624657) "/>
        <path d="M164.886236,65.4534116 C178.34667,68.8103574 200.918985,64.8515908 232.603182,53.5771118 C240.462171,69.8359556 244.095185,81.4272642 243.502224,88.3510378 C216.321851,102.549013 193.025925,108.879165 173.833195,109.297052 C174.443114,120.685301 173.056959,131.521483 168.400445,141.422858 C158.827444,161.778405 102.772202,142.926899 83.9247117,146.637336 C72.1218592,108.306079 94.9430317,92.7284115 94.9613939,68.2018393 C94.9815025,41.3426291 116.548177,-1.42108547e-13 119.721281,-1.42108547e-13 L148.658242,1.26202713e-13 C150.254863,20.5127326 158.291104,43.1195412 164.886236,65.4534116 Z" id="Clothes" fill="#1F28CF"/>
      </g>
    </g>
  </g>
</svg>