<?xml version="1.0" encoding="utf-8"?>
<svg viewBox="8.744 21.241 488.805 352.447" width="488.805" height="352.447" xmlns="http://www.w3.org/2000/svg">
  <linearGradient id="SVGID_1_" gradientUnits="userSpaceOnUse" x1="78.48" y1="454.5049" x2="214.708" y2="454.5049" gradientTransform="matrix(0.375406, 0, 0, 0.375406, 288.9611, 113.02153)">
    <stop offset="0" style="stop-color:#4F68CA"/>
    <stop offset="1" style="stop-color:#5ACEED"/>
  </linearGradient>
  <linearGradient id="SVGID_2_" gradientUnits="userSpaceOnUse" x1="46.94" y1="143.535" x2="231.9245" y2="143.535" gradientTransform="matrix(0.375406, 0, 0, 0.375406, 288.9611, 113.02153)">
    <stop offset="0" style="stop-color:#F87B58"/>
    <stop offset="0" style="stop-color:#F87B58"/>
    <stop offset="0.41" style="stop-color:#F89453"/>
    <stop offset="0.71" style="stop-color:#F8C548"/>
    <stop offset="1" style="stop-color:#F89C51"/>
  </linearGradient>
  <linearGradient id="SVGID_3_" gradientUnits="userSpaceOnUse" x1="39.5409" y1="209.67" x2="235.1279" y2="209.67" gradientTransform="matrix(0.375406, 0, 0, 0.375406, 288.9611, 113.02153)">
    <stop offset="0" style="stop-color:#E1A1ED"/>
    <stop offset="1" style="stop-color:#7658F4"/>
  </linearGradient>
  <linearGradient id="SVGID_4_" gradientUnits="userSpaceOnUse" x1="112.4276" y1="23.4127" x2="177.5234" y2="23.4127" gradientTransform="matrix(0.375406, 0, 0, 0.375406, 288.9611, 113.02153)">
    <stop offset="0" style="stop-color:#5ACEED"/>
    <stop offset="0.55" style="stop-color:#4F68CA"/>
    <stop offset="1" style="stop-color:#5282D3"/>
  </linearGradient>
  <g transform="matrix(1.001967, 0, 0, 1.001967, 126.898567, 111.510506)" style="">
    <g id="Layer_2" data-name="Layer 2" transform="matrix(1, 0, 0, 1, -117.938843, -90.09259)">
      <rect class="cls-1" x="754.46" y="465.39" width="17.92" height="16.72" transform="translate(-847.6 274.58) rotate(-45)" style="fill: rgb(225, 230, 251);"/>
      <rect class="cls-1" x="768.46" y="480.39" width="17.92" height="16.72" transform="translate(-854.11 288.88) rotate(-45)" style="fill: rgb(225, 230, 251);"/>
      <rect class="cls-1" x="771.46" y="450.39" width="17.92" height="16.72" transform="translate(-832.02 282.21) rotate(-45)" style="fill: rgb(225, 230, 251);"/>
      <rect class="cls-1" x="1171.46" y="666.39" width="17.92" height="16.72" transform="translate(-867.59 628.32) rotate(-45)" style="fill: rgb(225, 230, 251);"/>
      <rect class="cls-1" x="1185.46" y="681.39" width="17.92" height="16.72" transform="translate(-874.1 642.61) rotate(-45)" style="fill: rgb(225, 230, 251);"/>
      <rect class="cls-1" x="1170.46" y="696.39" width="17.92" height="16.72" transform="translate(-889.1 636.4) rotate(-45)" style="fill: rgb(225, 230, 251);"/>
      <rect class="cls-2" x="124.79" width="122" height="63" style="fill: rgb(186, 197, 244);"/>
      <rect class="cls-1" x="51.79" y="236" width="46" height="102" style="fill: rgb(225, 230, 251);"/>
      <path class="cls-1" d="M810,649s-40-65-42-82-4-23-4-23,12-2,16,7,16-2,20,22c0,0,1,12,10,8S810,649,810,649Z" transform="translate(-736.21 -404)" style="fill: rgb(225, 230, 251);"/>
      <path class="cls-2" d="M815,659s-28.56-53-38-74c-7-15.58-13-41-13-41s-12.06,4.42-11,14c1,9-8,12-6,23,2.16,11.9,19.36,14.13,9,25-6.29,6.59-1.57,17.84,3,25,2.93,4.58,17.38,8.75,14,7C765.26,634,815,659,815,659Z" transform="translate(-736.21 -404)" style="fill: rgb(186, 197, 244);"/>
      <ellipse class="cls-2" cx="786" cy="591" rx="2" ry="26" transform="translate(-911.32 -21.21) rotate(-24.72)" style="fill: rgb(186, 197, 244);"/>
      <path class="cls-1" d="M823.59,691.49s-60.9-46-68.94-61.11-12.09-20-12.09-20,10.45-6.23,17.45.7,14.18-7.68,26.63,13.22c0,0,1.37,14.67,10.37,11.67C806.34,632.89,823.59,691.49,823.59,691.49Z" transform="translate(-736.21 -404)" style="fill: rgb(225, 230, 251);"/>
      <path class="cls-3" d="M831.88,699S786,660,769.57,643.87c-12.19-12-27-33.47-27-33.47s-9.63,8.51-5.16,17c4.2,8-3.09,14.09,2.78,23.61,6.34,10.3,23.18,6.12,17.48,20-3.46,8.43,5,17.19,11.89,22.2,4.39,3.2,19.37,1.83,15.59,1.43C776.45,693.79,831.88,699,831.88,699Z" transform="translate(-736.21 -404)" style="fill: rgb(248, 248, 255);"/>
      <ellipse class="cls-1" cx="774.09" cy="658.21" rx="2" ry="26" transform="translate(-973.25 354.55) rotate(-46.04)" style="fill: rgb(225, 230, 251);"/>
      <path class="cls-1" d="M1141,569.09s47.54-77.3,50.59-97.89,5.57-27.81,5.57-27.81-13.2-3-18.08,7.8-17.63-3.15-23.25,25.87c0,0-1.7,14.56-11.48,9.29S1141,569.09,1141,569.09Z" transform="translate(-736.21 -404)" style="fill: rgb(225, 230, 251);"/>
      <path class="cls-2" d="M1135,581s34.27-63.21,45.76-88.34c8.53-18.65,16.43-49.31,16.43-49.31s13.15,5.93,11.5,17.53c-1.55,10.91,8.27,15,5.51,28.26-3,14.38-22.16,16.32-11.21,30,6.64,8.31.86,21.78-4.56,30.29-3.47,5.44-19.69,9.86-15.86,7.89C1191.32,552.85,1135,581,1135,581Z" transform="translate(-736.21 -404)" style="fill: rgb(186, 197, 244);"/>
      <path class="cls-2" d="M1168.49,498.49c-7.3,15.6-12.33,28.74-11.24,29.35s7.89-11.55,15.19-27.15,12.33-28.74,11.24-29.35S1175.78,482.88,1168.49,498.49Z" transform="translate(-736.21 -404)" style="fill: rgb(186, 197, 244);"/>
      <path class="cls-3" d="M1123.84,620.18s69.76-53.24,79.42-71.26,14.38-23.76,14.38-23.76-11.27-8-19.37.07-15.33-10-30.16,14.89c0,0-2.24,17.79-12.07,13.73C1145.85,549.64,1123.84,620.18,1123.84,620.18Z" transform="translate(-736.21 -404)" style="fill: rgb(248, 248, 255);"/>
      <path class="cls-1" d="M1114.28,628.93s52.77-45.38,71.77-64.26c14.1-14,31.59-39.51,31.59-39.51s10.25,10.79,4.87,21c-5.06,9.57,2.73,17.28-4.24,28.6-7.54,12.24-26,6.41-20.35,23.57,3.42,10.41-6.42,20.7-14.27,26.48-5,3.7-21.55,1.35-17.34,1C1176,625.1,1114.28,628.93,1114.28,628.93Z" transform="translate(-736.21 -404)" style="fill: rgb(225, 230, 251);"/>
      <path class="cls-4" d="M1184.38,576.16c-11.44,12.16-20,22.81-19.16,23.78s10.81-8.11,22.25-20.28,20-22.81,19.16-23.78S1195.82,564,1184.38,576.16Z" transform="translate(-736.21 -404)" style="fill: rgb(255, 255, 255);"/>
      <rect class="cls-2" x="105.79" y="236" width="77" height="102" style="fill: rgb(186, 197, 244);"/>
      <rect class="cls-1" x="273.79" y="237" width="77" height="102" style="fill: rgb(225, 230, 251);"/>
      <rect class="cls-1" x="253.79" width="50" height="64" style="fill: rgb(225, 230, 251);"/>
      <rect class="cls-2" x="70.79" y="53" width="349" height="257" style="fill: rgb(186, 197, 244);"/>
      <rect class="cls-3" x="79.79" y="53" width="340" height="257" style="fill: rgb(248, 248, 255);"/>
      <rect class="cls-4" x="82.79" y="57" width="333" height="18" style="fill: rgb(255, 255, 255);"/>
      <rect class="cls-1" x="82.79" y="74" width="333" height="232" style="fill: rgb(225, 230, 251);"/>
    </g>
    <g id="Layer_3" data-name="Layer 3" transform="matrix(1, 0, 0, 1, -117.938843, -90.09259)">
      <rect class="cls-2" x="137.79" y="83" width="41" height="46" style="fill: rgb(186, 197, 244);"/>
      <rect class="cls-2" x="183.79" y="83" width="41" height="46" style="fill: rgb(186, 197, 244);"/>
      <rect class="cls-2" x="228.79" y="83" width="41" height="46" style="fill: rgb(186, 197, 244);"/>
      <rect class="cls-4" x="274.79" y="83" width="41" height="46" style="fill: rgb(255, 255, 255);"/>
      <rect class="cls-4" x="319.79" y="83" width="41" height="46" style="fill: rgb(255, 255, 255);"/>
      <rect class="cls-4" x="365.79" y="83" width="41" height="46" style="fill: rgb(255, 255, 255);"/>
      <rect class="cls-4" x="137.79" y="136" width="41" height="46" style="fill: rgb(255, 255, 255);"/>
      <rect class="cls-4" x="183.79" y="136" width="41" height="46" style="fill: rgb(255, 255, 255);"/>
      <rect class="cls-3" x="228.79" y="136" width="41" height="46" style="fill: rgb(248, 248, 255);"/>
      <rect class="cls-4" x="274.79" y="136" width="41" height="46" style="fill: rgb(255, 255, 255);"/>
      <rect class="cls-4" x="319.79" y="136" width="41" height="46" style="fill: rgb(255, 255, 255);"/>
      <rect class="cls-4" x="365.79" y="136" width="41" height="46" style="fill: rgb(255, 255, 255);"/>
      <rect class="cls-4" x="137.79" y="187" width="41" height="46" style="fill: rgb(255, 255, 255);"/>
      <rect class="cls-4" x="183.79" y="187" width="41" height="46" style="fill: rgb(255, 255, 255);"/>
      <rect class="cls-3" x="228.79" y="187" width="41" height="46" style="fill: rgb(248, 248, 255);"/>
      <rect class="cls-4" x="274.79" y="187" width="41" height="46" style="fill: rgb(255, 255, 255);"/>
      <rect class="cls-3" x="319.79" y="187" width="41" height="46" style="fill: rgb(248, 248, 255);"/>
      <rect class="cls-4" x="365.79" y="187" width="41" height="46" style="fill: rgb(255, 255, 255);"/>
      <rect class="cls-3" x="138.79" y="239" width="41" height="46" style="fill: rgb(248, 248, 255);"/>
      <rect class="cls-3" x="184.79" y="239" width="41" height="46" style="fill: rgb(248, 248, 255);"/>
      <rect class="cls-4" x="229.79" y="239" width="41" height="46" style="fill: rgb(255, 255, 255);"/>
      <rect class="cls-4" x="275.79" y="239" width="41" height="46" style="fill: rgb(255, 255, 255);"/>
      <rect class="cls-2" x="320.79" y="239" width="41" height="46" style="fill: rgb(186, 197, 244);"/>
      <rect class="cls-4" x="366.79" y="239" width="41" height="46" style="fill: rgb(255, 255, 255);"/>
      <circle class="cls-2" cx="92.29" cy="66.5" r="3.5" style="fill: rgb(186, 197, 244);"/>
      <circle class="cls-2" cx="103.29" cy="66.5" r="3.5" style="fill: rgb(186, 197, 244);"/>
      <circle class="cls-2" cx="114.29" cy="66.5" r="3.5" style="fill: rgb(186, 197, 244);"/>
      <rect class="cls-4" x="92.79" y="135" width="37" height="9" rx="4.5" ry="4.5" style="fill: rgb(255, 255, 255);"/>
      <rect class="cls-4" x="92.79" y="187" width="37" height="9" rx="4.5" ry="4.5" style="fill: rgb(255, 255, 255);"/>
      <rect class="cls-4" x="92.79" y="239" width="37" height="9" rx="4.5" ry="4.5" style="fill: rgb(255, 255, 255);"/>
      <rect class="cls-2" x="141.79" y="139" width="23" height="7" rx="3.5" ry="3.5" style="fill: rgb(186, 197, 244);"/>
      <rect class="cls-2" x="141.79" y="152" width="12" height="5" rx="2.5" ry="2.5" style="fill: rgb(186, 197, 244);"/>
      <rect class="cls-2" x="188.79" y="139" width="22" height="6" rx="3" ry="3" style="fill: rgb(186, 197, 244);"/>
      <rect class="cls-4" x="324.79" y="246" width="22" height="6" rx="3" ry="3" style="fill: rgb(255, 255, 255);"/>
      <rect class="cls-5" x="369.79" y="192" width="22" height="6" rx="3" ry="3" style="fill: rgb(245, 245, 252);"/>
      <rect class="cls-5" x="368.79" y="140" width="22" height="6" rx="3" ry="3" style="fill: rgb(245, 245, 252);"/>
      <rect class="cls-5" x="323.79" y="140" width="22" height="6" rx="3" ry="3" style="fill: rgb(245, 245, 252);"/>
      <circle class="cls-2" cx="192.79" cy="153" r="4" style="fill: rgb(186, 197, 244);"/>
      <circle class="cls-2" cx="283.79" cy="146" r="4" style="fill: rgb(186, 197, 244);"/>
      <circle class="cls-2" cx="297.79" cy="146" r="4" style="fill: rgb(186, 197, 244);"/>
      <circle class="cls-2" cx="297.79" cy="196" r="4" style="fill: rgb(186, 197, 244);"/>
      <circle class="cls-2" cx="283.79" cy="196" r="4" style="fill: rgb(186, 197, 244);"/>
      <circle class="cls-2" cx="296.79" cy="247" r="4" style="fill: rgb(186, 197, 244);"/>
      <circle class="cls-2" cx="282.79" cy="247" r="4" style="fill: rgb(186, 197, 244);"/>
      <circle class="cls-2" cx="160.79" cy="248" r="4" style="fill: rgb(186, 197, 244);"/>
      <circle class="cls-2" cx="146.79" cy="248" r="4" style="fill: rgb(186, 197, 244);"/>
      <circle class="cls-2" cx="283.79" cy="92" r="4" style="fill: rgb(186, 197, 244);"/>
      <circle class="cls-4" cx="236.79" cy="92" r="4" style="fill: rgb(255, 255, 255);"/>
      <circle class="cls-4" cx="250.79" cy="92" r="4" style="fill: rgb(255, 255, 255);"/>
      <circle class="cls-4" cx="191.79" cy="92" r="4" style="fill: rgb(255, 255, 255);"/>
      <circle class="cls-4" cx="205.79" cy="92" r="4" style="fill: rgb(255, 255, 255);"/>
      <circle class="cls-4" cx="146.79" cy="92" r="4" style="fill: rgb(255, 255, 255);"/>
      <circle class="cls-4" cx="160.79" cy="92" r="4" style="fill: rgb(255, 255, 255);"/>
      <text class="cls-6" transform="translate(298.27 124.69)" style="white-space: pre; font-family: RevaloModernBold, &quot;Revalo ModernBold&quot;; font-size: 28px; line-height: 44.8px; fill: rgb(186, 197, 244);">4</text>
      <text class="cls-7" style="white-space: pre; font-family: RevaloModernBold, &quot;Revalo ModernBold&quot;; font-size: 28px; line-height: 44.8px; fill: rgb(255, 255, 255);" x="207.274" y="124.69">2</text>
      <text class="cls-6" style="white-space: pre; font-family: RevaloModernBold, &quot;Revalo ModernBold&quot;; font-size: 28px; line-height: 44.8px; fill: rgb(186, 197, 244);" x="160.614" y="176.49">7</text>
      <text class="cls-6" transform="translate(289.6 176.55)" style="white-space: pre; font-family: RevaloModernBold, &quot;Revalo ModernBold&quot;; font-size: 28px; line-height: 44.8px; perspective-origin: 252.703px 0px; fill: rgb(186, 197, 244);">10</text>
      <text class="cls-6" style="white-space: pre; font-family: RevaloModernBold, &quot;Revalo ModernBold&quot;; font-size: 28px; line-height: 44.8px; perspective-origin: 252.703px 0px; fill: rgb(186, 197, 244);" x="239.266" y="228.32">15</text>
      <text class="cls-6" style="white-space: pre; font-family: RevaloModernBold, &quot;Revalo ModernBold&quot;; font-size: 28px; line-height: 44.8px; perspective-origin: 252.703px 0px; fill: rgb(186, 197, 244);" x="376.262" y="230.32">18</text>
      <text class="cls-8" style="white-space: pre; font-family: RevaloModernBold, &quot;Revalo ModernBold&quot;; font-size: 28px; letter-spacing: -0.28px; line-height: 44.8px; fill: rgb(186, 197, 244);" x="198.992" y="279.706">2<tspan class="cls-9" x="210.722" y="279.706" style="letter-spacing: normal; font-size: 28px; word-spacing: 0px;">0</tspan></text>
    </g>
  </g>
  <g transform="matrix(0.375406, 0, 0, 0.375406, 288.961029, 113.021515)" style="">
    <path class="st0" d="M132.3,611l-3.6-0.1l-18.7,0.2c0,0-4.1,19.2-6.3,27.2c-0.1,0.5-0.6,1.8-0.8,2.8c-0.3,1.4-0.4,2.8-0.4,4.2 c0.4,7.3,3.1,13.4,9.6,16.7c7.1,3.6,12.6,6.9,20.2,0s8.6-11.3,5.7-23.3S134.1,611.4,132.3,611z" style="fill: rgb(75, 68, 190);"/>
    <path class="st0" d="M210.6,634.9L210.6,634.9c-12.9-4.1-21.5-21.6-21.5-21.6l-22-1.3c0,0-1.2,17.8-1.8,26.8 c-0.8,12,1.2,17.3,9.1,16.7c10.4-0.8,52.7,3,59.4-1.3C242.5,648.6,222.6,638.7,210.6,634.9z" style="fill: rgb(75, 68, 190);"/>
  </g>
  <path class="st1" d="M 318.429 223.766 L 318.429 233.639 L 330.366 342.507 L 338.813 342.507 C 338.813 342.507 341.742 267.838 341.742 265.249 C 341.742 262.658 342.494 254.549 342.494 254.549 C 342.494 254.549 353.117 285.22 353.304 287.772 C 353.492 290.325 351.578 343.144 351.578 343.144 L 360.023 343.483 C 360.023 343.483 367.421 307.743 367.421 304.366 C 367.421 300.988 369.935 283.418 369.56 280.04 C 369.184 276.661 362.914 224.029 362.914 224.029 L 349.964 223.691 L 318.429 223.766 Z" style="fill: url(#SVGID_1_);"/>
  <path class="st2" d="M 373.201 212.316 L 373.088 212.166 C 373.126 212.278 373.163 212.355 373.201 212.316 M 348.387 202.743 L 343.656 204.695 L 343.394 211.227 L 348.612 213.292 C 348.612 213.255 354.318 213.066 354.318 213.03 C 354.356 212.766 356.57 212.841 357.584 213.481 L 375.266 207.399 L 375.904 203.156 C 375.904 203.156 377.218 208.487 371.287 197.751 L 348.387 202.743 Z M 369.522 181.195 L 369.147 179.055 L 368.247 178.904 L 369.522 181.195 M 336.825 124.32 C 334.647 125.222 333.596 128.414 333.596 128.414 C 333.596 128.414 332.546 127.775 332.546 129.576 C 332.546 131.379 333.446 135.433 334.083 136.484 C 335.209 138.249 336.224 140.052 337.125 141.928 C 337.989 143.805 337.687 147.633 336.787 148.197 C 335.886 148.761 319.818 163.176 319.818 163.176 L 306.567 203.869 L 306.567 205.483 L 308.594 206.196 L 310.697 207.999 C 310.883 208.037 313.55 209.5 313.925 209.764 C 316.028 210.814 318.28 211.602 320.569 212.129 C 322.07 212.429 328.716 212.278 328.716 212.278 L 335.435 212.129 L 334.272 203.569 L 324.324 203.456 L 310.734 202.781 L 324.511 171.096 L 367.983 178.868 C 360.249 164.903 351.578 149.211 350.827 147.559 C 350.188 146.207 350.865 142.978 351.24 141.289 C 351.578 139.75 352.328 137.873 353.042 137.31 C 353.756 136.746 355.031 134.269 355.031 133.18 C 355.031 132.092 355.333 127.85 354.431 128.752 C 354.169 129.014 353.117 127.4 352.742 125.785 C 352.14 123.458 350.526 121.806 348.65 120.305 C 348.65 120.305 339.077 123.458 336.936 124.358" style="fill: url(#SVGID_2_);"/>
  <path class="st3" d="M 320.193 154.429 C 318.091 155.855 316.14 157.771 315.426 160.247 C 314.713 162.725 309.645 182.021 308.969 184.462 C 307.318 190.43 306.342 192.156 304.389 199.177 C 301.988 207.812 307.506 209.125 313.137 210.401 C 318.993 211.715 319.03 212.278 320.42 212.278 C 320.645 212.278 327.59 213.705 327.815 209.764 C 327.965 207.286 327.514 203.344 326.576 203.456 C 324.435 203.757 317.529 201.917 317.19 201.693 C 316.739 201.391 318.691 195.986 319.818 192.644 C 320.645 190.168 323.836 179.881 324.548 177.966 C 324.924 176.916 322.747 187.952 321.433 198.764 C 321.395 199.177 320.871 203.382 321.02 203.382 C 322.597 203.382 326.913 203.456 328.265 203.607 C 334.347 204.32 335.511 207.211 335.135 209.538 C 334.46 213.592 319.668 211.715 319.743 212.242 C 319.743 212.242 317.19 223.729 318.617 224.441 C 319.856 225.079 336.448 231.987 339.978 233.339 C 340.354 233.488 340.804 233.301 340.955 232.888 C 340.955 232.888 340.955 232.888 340.955 232.851 L 343.205 226.395 C 343.243 226.318 343.32 226.282 343.394 226.318 C 343.431 226.318 343.469 226.356 343.469 226.395 L 345.609 233.452 C 345.645 233.639 345.796 233.789 345.947 233.865 L 346.884 233.865 L 365.318 229.886 C 365.318 229.886 365.241 222.601 365.205 213.292 C 365.205 212.355 365.054 208.9 364.379 209.538 C 363.704 210.177 348.312 212.202 346.622 211.491 C 343.056 209.988 343.995 206.273 345.234 204.733 C 346.66 202.969 364.828 202.106 364.905 200.791 C 365.205 195.084 364.754 180.107 364.454 181.908 C 364.002 184.724 353.379 200.116 353.379 202.781 C 353.379 205.447 353.192 212.202 353.192 212.202 L 370.648 210.852 C 370.648 210.852 376.505 208.825 377.031 205.447 C 377.556 202.068 376.918 200.567 376.692 195.537 C 376.541 192.344 372.037 173.161 370.761 167.719 C 370.572 166.891 370.461 166.065 370.386 165.241 C 370.235 162.988 369.333 157.732 364.492 155.442 C 358.484 152.589 353.792 150.337 352.591 150.337 C 351.465 150.337 348.387 157.094 346.773 159.009 C 346.06 159.872 346.209 160.285 345.27 161.561 C 344.783 162.237 343.882 162.35 343.205 161.899 C 343.056 161.786 342.943 161.637 342.831 161.486 C 342.305 160.735 341.855 159.91 341.442 159.084 C 340.729 157.658 335.209 149.511 335.209 149.511 C 335.209 149.511 322.296 152.966 320.193 154.429" style="fill: url(#SVGID_3_);"/>
  <path class="st4" d="M 348.612 120.343 C 348.612 120.343 336.825 124.733 335.999 125.372 C 335.173 126.01 333.596 128.414 333.596 128.414 C 333.596 128.414 332.77 127.962 332.582 129.201 C 332.582 129.201 331.381 126.724 331.23 125.335 C 331.081 123.945 331.23 120.379 333.483 118.014 C 335.735 115.649 340.278 112.534 343.094 112.946 C 345.909 113.36 347.11 113.697 348.874 115.462 C 350.639 117.226 352.14 117.751 352.666 118.014 C 353.192 118.278 355.219 119.741 355.557 122.482 C 355.895 125.222 354.956 130.703 354.956 130.703 C 354.956 130.703 355.219 128.563 354.356 129.24 C 353.756 129.689 352.891 127.738 352.629 126.574 C 352.291 125.448 349.251 120.642 348.612 120.343 Z" style="fill: url(#SVGID_4_);"/>
  <g class="st5" transform="matrix(0.375406, 0, 0, 0.375406, 288.961029, 113.021515)" style="opacity: 0.07;">
    <g>
      <defs>
        <rect id="SVGID_5_" x="149.3" y="77.7" width="20.8" height="34.1"/>
      </defs>
      <clipPath id="SVGID_6_">
        <rect x="149.3" y="77.7" width="20.8" height="34.1" transform="matrix(1, 0, 0, 1, 0, 0)" style="overflow: visible;"/>
      </clipPath>
      <g class="st6" style="clip-path: url(#SVGID_6_);">
        <path d="M169.4,99.5c-0.2-0.6,3.4,2.1-0.8-0.9c-5.9-4.3-3.1-21.9-3.1-21.9c-2.2,4.6-6,8.2-10.7,10c-7.5,2.8-9.8,0.7,1.8,7.4 c11.4,6.6,5.5,8.9,4.7,17.6"/>
      </g>
    </g>
  </g>
  <g transform="matrix(0.375406, 0, 0, 0.375406, 288.961029, 113.021515)" style="">
    <g class="st5" style="opacity: 0.07;">
      <g>
        <defs>
          <rect id="SVGID_7_" x="159.1" y="140.7" width="58" height="100.7"/>
        </defs>
        <clipPath id="SVGID_8_">
          <rect x="159.1" y="140.7" width="58" height="100.7" transform="matrix(1, 0, 0, 1, 0, 0)" style="overflow: visible;"/>
        </clipPath>
        <g class="st7" style="clip-path: url(#SVGID_8_);">
          <path d="M192.4,161.7l15.6,59.1c0,0-0.1,10.5-3.2,12.1s-12.9,2.6-15.2,3.6s-26.2,6-20-2.4c1.4-1.9,33.8-13.2,19.3-25.1 s-11.9-28.4-4.9-39.8s5.5-21.1,5.5-21.1L192.4,161.7z"/>
        </g>
      </g>
    </g>
    <g class="st5" style="opacity: 0.07;">
      <g>
        <defs>
          <rect id="SVGID_9_" x="73.5" y="295.5" width="47.3" height="359.9"/>
        </defs>
        <clipPath id="SVGID_10_">
          <rect x="73.5" y="295.5" width="47.3" height="359.9" transform="matrix(1, 0, 0, 1, 0, 0)" style="overflow: visible;"/>
        </clipPath>
        <g class="st8" style="clip-path: url(#SVGID_10_);">
          <path d="M126.3,317.5c0,0-13.5,71.6-6.5,100.2c10.6,43.4-4.7,102.1-4.7,130.3c0,18.3,7.2,68.9,7.7,89.5c0.1,6.2,4.6,18.2,1.3,21 c-1.4,1.2-10-1.6-14.7-3.8c-2.5-1.2-3.9-3.8-3.6-6.4l2.8-12.2l4-16.2l-28-262c0,0-9-58.3-3.9-58.5S126.4,317.5,126.3,317.5"/>
        </g>
      </g>
    </g>
    <path class="st9" d="M113.5,221.2l52.9,6.6c1.1,0.3,1.8,1.3,1.7,2.5l-1.5,47.8c-0.1,1.5-1,3.5-2.4,3.1l-52.6-10.1 c-1-0.3-1.7-1.2-1.7-2.3l-0.2-5.2l5.8-1.5c1.5-0.4,2.9-1.2,4.1-2.1c0.3-0.2,0.5-0.4,0.7-0.7l1.2-1.8c0.4-0.5,0.5-1.2,0.4-1.9 c-0.2-1.1-0.5-2.6-0.7-3.4c-0.1-0.3-0.2-0.6-0.3-0.8l-1.3-2.8c-0.6-1.3-1.6-2.3-2.9-2.9l-0.8-0.4l-5.7-3.1l0.5-18.7 c0-1.3,1.1-2.3,2.4-2.3C113.3,221.2,113.4,221.2,113.5,221.2z" style="fill: rgb(255, 255, 255);"/>
  </g>
  <g id="woman" transform="matrix(0.343546, 0, 0, 0.343546, 60.679588, 224.987534)" style="">
    <g>
      <path class="st0" d="M346.5,407c-5.9-9.8-10.6-12.4-25.2-12.8c-14.6-0.4-34-0.2-34-0.2l-0.2,20.7c0,0,16.1,9.3,24.7,13.9 c0.5,0.3,1.9,1.1,2.9,1.7c1.5,0.7,3.1,1.3,4.7,1.7c8.5,1.8,16.2,0.9,21.7-4.6C347.2,421.3,352.4,416.8,346.5,407z" style="fill: rgb(75, 68, 190);"/>
      <path class="st0" d="M236.4,388.6c-0.5,0.4-1.8,1.4-2.7,2.1c-1.2,1.1-2.3,2.4-3.3,3.7c-4.8,7.2-6.9,14.7-3.8,21.9 c3.4,7.9,5.7,14.5,16.9,12.6c11.2-1.9,15.5-5.3,21.3-18.6c5.8-13.3,12.9-31.5,12.8-31.5l-19.1-7.9 C258.5,370.9,243.9,382.4,236.4,388.6z" style="fill: rgb(75, 68, 190);"/>
    </g>
    <linearGradient id="gradient-1" gradientUnits="userSpaceOnUse" x1="1142.9341" y1="-368.0163" x2="829.3901" y2="-368.0163" gradientTransform="matrix(1 0 0 -1 -707.48 3.02)">
      <stop offset="0" style="stop-color:#5ACEED"/>
      <stop offset="1" style="stop-color:#538BD6"/>
    </linearGradient>
    <path class="st1" d="M288.6,394.9c0,0,0.3,20.9-3.1,21.4s-50.3-6.3-69-7.3s-61.1-13.1-81.9-36.6c-18-20.3-15.2-42.8-1.9-42.8 s25.5-11.3,59.3,4.8s69.6,18.8,89.7,17.2s76.4-12,80.8-15.2s25.5-12.4,54.9-9.2s15.5,26.5,9.3,35.5c-8.7,12.5-29.3,25.9-46.5,26.5 S288.6,394.9,288.6,394.9z" style="fill: url(#gradient-1);"/>
    <linearGradient id="gradient-2" gradientUnits="userSpaceOnUse" x1="228" y1="149.2491" x2="402.9014" y2="149.2491">
      <stop offset="0" style="stop-color:#F87B58"/>
      <stop offset="0.5" style="stop-color:#F8C548"/>
      <stop offset="1" style="stop-color:#F89C51"/>
    </linearGradient>
    <path class="st2" d="M253.8,29.4C243.9,33,231.3,82,231.3,82l-0.2-0.2l-1.4,6.8l-1.7,8.9l3.3,53.2l32,16l73.5,19.8l20.3,28.9 c0,0,45.5,46.3,45.8,49.5s-48.9,19.5-53.6,20.2c-11.3,1.7,72.3-18.8,45.5-51.3c-11.4-13.9-28.1-55.7-61.2-83.4 c-19.2-16-13.8-61.5-20.6-90.3c-8.5-36-13.7-46.8-22.2-46.8C283.1,13.3,272.4,22.5,253.8,29.4" style="fill: url(#gradient-2);"/>
    <linearGradient id="gradient-3" gradientUnits="userSpaceOnUse" x1="153.7839" y1="441.1743" x2="419.9015" y2="441.1743" gradientTransform="matrix(1 0 0 -1 0 672)">
      <stop offset="0" style="stop-color:#E1A1ED"/>
      <stop offset="1" style="stop-color:#7658F4"/>
    </linearGradient>
    <path class="st3" d="M357.8,145.7c-15.4-14.1-20.6-17.5-34.1-12.7s-20.1,9.2-38.5,12.2c-11.3,2-23,0.5-33.5-4.1l-37.9,3.8 c-4.8-0.6-58.7,100.6-60,121.6c-0.8,12.9,28.5,32.8,36.7,34.8c3.3,0.8,9.2-31,11.1-33.9l-12.3-3.8c2.2-5.5,9.6-19.1,14.5-26.4 c1.5-2.3,13.2-21.6,14.8-29c0.3,0.7,2,14.7,3.6,19.2c3,8.3,7.1,13,7.1,19.6s-0.8,32.8-5.6,44.6s-11.8,39.1-11.8,39.1l121.2-0.7 c0,0-4.4-52.1-2.6-70c0,0-1.9-7.2,1.7-17.6c5.9-17.2,7.6-42.8,6.6-46.8c-1.5-6.3,35.6,47,43.7,60.5c3.4,5.6-42.7,15.5-46.5,19.8 c-4,4.5,3.9,16.7,3.9,16.7s80.4-9.8,80-22.1C419.5,258.2,375.7,162,357.8,145.7z" style="fill: url(#gradient-3);"/>
    <linearGradient id="gradient-4" gradientUnits="userSpaceOnUse" x1="207.1" y1="554.2117" x2="357.0181" y2="554.2117" gradientTransform="matrix(1 0 0 -1 0 672)">
      <stop offset="0" style="stop-color:#5ACEED"/>
      <stop offset="1" style="stop-color:#538BD6"/>
    </linearGradient>
    <path class="st4" d="M263.5,0.6c0,0-22.5,0.9-29,24.5s-7.4,56.5-7.6,61.6c-0.2,5.4,2.3,37-9.8,50.2c-10.4,11.4-6.2,22.4-8.8,31.5 l-1.2,15.1c0.2,1.8,1.5,3.3,3.2,3.9c1.6,0.5,7.2-2.1,8.2-2.5c14-5.6,14-10.1,19.3-14.6c4.4-3.7,16.5-12.3,20.1-15.7 s6.1-6.4,6.3-10.7c0.7-21.9-3.1-42.1-7.9-52.8s-14-28.8-6.3-40.8s21.6-24,22.4-27s1.2,11.6,9.7,16.7s15.6,12.2,18.2,19.1 c2.2,5.8,5.1,15.7-2.9,32.8s-14.5,39.1-3.2,55.4s35.1,33.9,39,42.1c4.4,9.1,0.2,30.5-0.6,43.4s25.2-22.4,24.4-39.2s2-24-14.1-49.8 s-26.6-70-27-80.7s-5.2-40.4-14.9-48.9C292.6,7,290.8,0,273.6,0C270.2,0,266.8,0.2,263.5,0.6" style="fill: url(#gradient-4);"/>
    <path class="st5" d="M212.2,358.2l113.6,0.6c0,0-13.3,10.4-19.7,11.6s-33.8,14.8-44,9.6C254.9,376.1,212.2,358.2,212.2,358.2z" style="opacity: 0.07;"/>
    <path class="st5" d="M275.5,103.1c0,0,10.6,2.7,15-3.5c9.9-14,0.9,7.1,0.9,7.1s-2.9,8.2-2.7,12.3S277.3,103.7,275.5,103.1" style="opacity: 0.07;"/>
    <path class="st5" d="M233.1,175.1c-1.3,1.6-3.2,2.9-4.2,7c-1.7,6.6-3.5,14-8.1,20.8c-2.7,4-1.2,19.5,3.3,29.3 c1.3,2.8,5.3,10.1,5.2,11.8l-0.3,14.2h12.2c0,0,10.4,1.1,8.2-7.5c-1.9-7.6-11.8-35.9-5.1-42.1c12.6-11.5-3.3-34.5,2.6-41.9 c5.1-6.4,12.4-11,12.4-13.1c0-0.8-1.9,1.8-3.2,2.7c-2.5,1.8-3.8,3.2-5.9,4.6c-2.3,1.5-5.8,4-8.1,5.7 C238.8,169.1,235.8,171.9,233.1,175.1z" style="opacity: 0.07;"/>
  </g>
  <g id="laptop" transform="matrix(0.343546, 0, 0, 0.343546, 60.679588, 224.987534)" style="">
    <path class="st6" d="M185.6,266.2c0,0-0.1-7.4,7.2-7.7s161.9-0.1,161.9-0.1s6.8,0.8,7,6.3s0.2,87.2,0.2,87.2s0.1,6.3-6.6,6.5 S191,358.6,191,358.6s-5.9-1.5-5.8-7.4S185.6,266.2,185.6,266.2z" style="fill: rgb(255, 255, 255);"/>
    <linearGradient id="gradient-5" gradientUnits="userSpaceOnUse" x1="280.9" y1="-44.5" x2="267.54" y2="-44.5" gradientTransform="matrix(1 0 0 -1 0 264)">
      <stop offset="0" style="stop-color:#59C2E9"/>
      <stop offset="1" style="stop-color:#5BD3EF"/>
    </linearGradient>
    <circle class="st7" cx="274.2" cy="308.5" r="6.7" style="fill: url(#gradient-5);"/>
  </g>
</svg>