<?xml version="1.0" encoding="utf-8"?>
<svg viewBox="69.637 91.218 565.546 319.584" width="565.546" height="319.584" xmlns="http://www.w3.org/2000/svg">
  <linearGradient id="gradient-1" gradientUnits="userSpaceOnUse" x1="1014.9271" y1="1263.9867" x2="1169.8423" y2="1263.9867" gradientTransform="matrix(0.609413, 0, 0, 0.609413, -359.496185, -439.578505)">
    <stop offset="0" style="stop-color:#4F68CA"/>
    <stop offset="1" style="stop-color:#5ACEED"/>
  </linearGradient>
  <linearGradient id="gradient-2" gradientUnits="userSpaceOnUse" x1="1088.64" y1="1010.7097" x2="1181.0321" y2="1010.7097" gradientTransform="matrix(0.609413, 0, 0, 0.609413, -359.496185, -439.578505)">
    <stop offset="0.11" style="stop-color:#F87B58"/>
    <stop offset="0.5" style="stop-color:#F8C548"/>
    <stop offset="1" style="stop-color:#F89C51"/>
  </linearGradient>
  <linearGradient id="gradient-3" gradientUnits="userSpaceOnUse" x1="1088.7756" y1="1094.9098" x2="1233.2856" y2="994.3298" gradientTransform="matrix(0.609413, 0, 0, 0.609413, -359.496185, -439.578505)">
    <stop offset="0" style="stop-color:#7658F4"/>
    <stop offset="1" style="stop-color:#E1A1ED"/>
  </linearGradient>
  <linearGradient id="gradient-4" gradientUnits="userSpaceOnUse" x1="1082.2306" y1="1030.944" x2="1171.0532" y2="1030.944" gradientTransform="matrix(0.609413, 0, 0, 0.609413, -359.496185, -439.578505)">
    <stop offset="0" style="stop-color:#4B44BE"/>
    <stop offset="1" style="stop-color:#5BD3EF"/>
  </linearGradient>
  <g id="Layer_1" transform="matrix(1, 0, 0, 1, 69.607788, 91.266052)">
    <title>bg1</title>
    <path class="st0" d="M1.6,319.5c0,0-11.9-98.5,29.8-128.4c36.4-26,66.7-41.8,128.3-43.8s95.5-2,132.3-42.8S378.7,2.2,434.4,0.1 c53.7-2,86.6,14.9,117.4,134.3s-1,181.1-2,182.1C549.1,317.2,1.6,319.5,1.6,319.5z" style="fill: rgb(248, 248, 255);"/>
    <path class="st1" d="M252,241.6c3.4-41-9.2-101,5.5-109.4c14.6-8.2,19.5-10.9,34.6-27.6C328.9,63.8,378.7,2.2,434.4,0.1 c53.7-2,86.6,14.9,117.4,134.3c15.4,59.7,14.5,91.2,13,110.1c-0.8,10.4-1.6,23.9-2.1,24.4C561.9,269.6,249.2,275.7,252,241.6z" style="fill: rgb(233, 237, 252);"/>
    <path class="st2" d="M127.4,109.3L123,317.5c0,1.5,4,1,5,1h6L133,109.6l35.7,1l-15.5-87.7c-0.8-4.5-4.7-7.9-9.4-7.9h-24.7 c-5.9,0-11,4.2-12,10l-15.1,83.5L127.4,109.3z" style="fill: rgb(225, 230, 252);"/>
    <g id="Flower">
      <path class="st2" d="M65.8,269.4c0,0-0.2,8.2,1.2,9.1c0.6,0.5,1.3,0.8,2,1l6.9,37.1c0,0,20.1,3.7,30.2-0.5l6.9-36.6l2.3-0.9 l0.9-9.2C116.2,269.4,91.5,261.2,65.8,269.4z" style="fill: rgb(225, 230, 252);"/>
      <path class="st3" d="M68.1,279.3c0,0,27,2.1,30.2,1.2s2.3-8.2,2.3-8.2l13.3-1.4c0,0,0,7.8-0.9,8.7c-1,1.2-1.8,2.6-2.3,4.1 c0,0.5-5.5,33-5.5,33s-8.7,1.4-10.1,1.4s3.7-27,3.7-28.8s0-5.5-1.4-5.5s-27.8,0.8-28-2.2C69.2,280.7,68.8,279.9,68.1,279.3z" style="fill: rgb(186, 196, 246);"/>
      <path class="st3" d="M78.8,271.1c0,0-7.5-5.3-11.5-5.8s-8.6-1-12.6-1.6s-9.1-2.4-9-4.8s0.6-3.5,2.9-4.8c2-1.3,4.2-2.1,6.6-2.4 c1.8-0.2,19.8,4.5,27.3,15.7l3,3.7H78.8z" style="fill: rgb(186, 196, 246);"/>
      <path class="st4" d="M52.7,258.1c0,0,6.9-0.1,10.7,1.1c3,1.1,5.8,2.4,8.6,4l11.3,7.9" style="fill: rgb(186, 196, 246); stroke: rgb(255, 255, 255); stroke-linecap: round; stroke-miterlimit: 10; stroke-width: 0.75px;"/>
      <path class="st3" d="M86.7,270.8c0,0-8.8-11.9-12.2-15.2s-7.4-7.2-10.7-10.7s-7.4-8.5-5.7-10.6s3-3.5,6.2-3 c2.5,0.3,4.9,1.1,6.9,2.6c1.8,1.1,17.7,16.3,20,33.7l2.3,3.5L86.7,270.8z" style="fill: rgb(186, 196, 246);"/>
      <path class="st5" d="M66.1,238.3c0,0,6.8,4.1,9.5,8c2.5,3.7,6.5,10.2,6.5,10.2l4.6,12.5" style="fill: none; stroke: rgb(255, 255, 255); stroke-linecap: round; stroke-miterlimit: 10; stroke-width: 0.75px;"/>
      <path class="st1" d="M91.1,271.4c0,0-10.2-22.2-12.1-26.6s-9.7-11-11.4-15.5s-2.8-7.7-1-10.2s6.5-4.5,9.5-3 c2.8,1.4,6.5,5.6,8.1,7.7c1.3,1.7,9.6,31.8,8.9,38.8l1.6,8.9L91.1,271.4z" style="fill: rgb(233, 237, 252);"/>
      <path class="st5" d="M73.1,224.3c0,0,5.9,7.6,7.7,12c2,5,4,14.5,3.7,13l6.1,20.6" style="fill: none; stroke: rgb(255, 255, 255); stroke-linecap: round; stroke-miterlimit: 10; stroke-width: 0.75px;"/>
      <path class="st1" d="M85.5,271.3c0,0-9-10.3-13.4-12.3s-9.4-4.2-13.7-6.4s-9.4-5.8-8.6-8s1.8-3.1,4.9-3.5c2.7-0.5,5.5-0.4,8.2,0.2 c2,0.5,20.8,11.9,25.6,25.4l2.2,4.7L85.5,271.3z" style="fill: rgb(233, 237, 252);"/>
      <path class="st5" d="M58.1,246.5c0,0,7.8,2.6,11.7,5.2c2.9,2.2,5.7,4.5,8.4,7.1l8.6,12.6" style="fill: none; stroke: rgb(255, 255, 255); stroke-linecap: round; stroke-miterlimit: 10; stroke-width: 0.75px;"/>
      <path class="st3" d="M109,271.5c0,0,8.2-5,12.5-5.5s9.3-0.9,13.7-1.5s9.8-2.3,9.7-4.5s-0.6-3.3-3.2-4.6c-2.2-1.2-4.6-2-7.1-2.3 c-1.9-0.2-21.4,4.3-29.6,15l-3.3,3.5L109,271.5z" style="fill: rgb(186, 196, 246);"/>
      <path class="st4" d="M137.2,259c0,0-7.5-0.1-11.6,1.1c-3.2,1-6.3,2.3-9.3,3.8l-10.9,7.3" style="fill: rgb(186, 196, 246); stroke: rgb(255, 255, 255); stroke-linecap: round; stroke-miterlimit: 10; stroke-width: 0.75px;"/>
      <path class="st3" d="M100.4,271.2c0,0,9.5-11.4,13.2-14.6s8-6.9,11.6-10.2s8.1-8.1,6.2-10.1s-3.2-3.3-6.7-2.9 c-2.7,0.2-5.2,1.1-7.5,2.5c-1.9,1.1-19.1,15.6-21.6,32.2l-2.5,3.4L100.4,271.2z" style="fill: rgb(186, 196, 246);"/>
      <path class="st5" d="M122.7,240.2c0,0-7.4,3.9-10.3,7.6c-2.7,3.5-7.1,9.8-7.1,9.8l-4.9,11.9" style="fill: none; stroke: rgb(255, 255, 255); stroke-linecap: round; stroke-miterlimit: 10; stroke-width: 0.75px;"/>
      <path class="st1" d="M95.7,271.8c0,0,11.1-21.2,13.1-25.4s10.5-10.5,12.4-14.8s3.1-7.4,1.1-9.7s-7.1-4.3-10.3-2.9 c-3.1,1.3-7,5.3-8.8,7.4c-1.4,1.6-10.4,30.4-9.7,37.1l-1.7,8.5L95.7,271.8z" style="fill: rgb(233, 237, 252);"/>
      <path class="st3" d="M94.6,271.5c0,0,0.9-20.7,3-27.4c1.4-4.5,2.8-12,4.7-16.2s-1-9.8-2.9-12.2s-7-1.9-10.3-0.5 c-3.1,1.3-4.8,5.6-5.2,7.9c-0.3,2.1,7,27,6.2,36.2l0.6,12.4L94.6,271.5z" style="fill: rgb(186, 196, 246);"/>
      <path class="st5" d="M115.2,226.8c0,0-6.3,7.2-8.3,11.5c-2.2,4.8-4.3,13.9-4,12.4l-7.2,20.2" style="fill: none; stroke: rgb(255, 255, 255); stroke-linecap: round; stroke-miterlimit: 10; stroke-width: 0.75px;"/>
      <path class="st1" d="M101.8,271.6c0,0,9.8-9.8,14.5-11.7s10.2-4,14.8-6.1s10.2-5.5,9.3-7.6s-1.9-2.9-5.3-3.3 c-2.9-0.4-5.9-0.4-8.8,0.2c-2.2,0.5-22.5,11.3-27.7,24.2l-2.4,4.4L101.8,271.6z" style="fill: rgb(233, 237, 252);"/>
      <path class="st5" d="M131.3,248c0,0-8.4,2.4-12.6,4.9c-3.2,2-6.2,4.3-9.1,6.7l-9.5,10.6" style="fill: none; stroke: rgb(255, 255, 255); stroke-linecap: round; stroke-miterlimit: 10; stroke-width: 0.75px;"/>
      <path class="st5" d="M92.6,219.5c0,0,1.7,17.7,0.7,22.5c-0.4,2-0.2,14.5-0.2,14.5l-0.4,13.8" style="fill: none; stroke: rgb(255, 255, 255); stroke-linecap: round; stroke-miterlimit: 10; stroke-width: 0.75px;"/>
    </g>
    <polygon class="st3" points="93,103.9 167.2,105.3 168.7,110.6 92.1,108.6 &#9;" style="fill: rgb(186, 196, 246);"/>
    <path class="st3" d="M457.9,116.8l-0.6,145.8l92.6,0.2c0,0,0.7-76.8-3-150.3l-88.8-1.3L457.9,116.8z" style="fill: rgb(186, 196, 246);"/>
    <polygon class="st3" points="370.7,135.7 368.3,263 447.4,263 446.9,135.7 &#9;" style="fill: rgb(186, 196, 246);"/>
    <polygon class="st3" points="255.8,210.4 369.6,211 368.3,263 256.2,262.9 &#9;" style="fill: rgb(186, 196, 246);"/>
    <path class="st6" d="M246.4,137l0.3,126.3c0,0,0.7,7.9,8.3,8.3s306.8,0.5,306.8,0.5s2.7-8.4,1.6-8.7s-307.2-0.3-307.2-0.3 s0.1-4.5,0.1-7.3c0-3.2-0.2-122.6-0.2-122.6C253.1,134.7,249.8,136,246.4,137z" style="fill: rgb(255, 255, 255);"/>
    <polygon class="st6" points="253,149.5 555.7,151.4 557.3,157.9 253,159.4 &#9;" style="fill: rgb(255, 255, 255);"/>
    <polygon class="st6" points="338.4,51.2 338.4,263.2 346.4,263.8 346.4,45.7 &#9;" style="fill: rgb(255, 255, 255);"/>
    <polygon class="st6" points="483,8.6 482.8,263.2 490.2,262.6 491.4,13.6 &#9;" style="fill: rgb(255, 255, 255);"/>
    <polygon class="st6" points="346.4,45.7 519.2,46.8 514.2,37.8 356.3,37.7 &#9;" style="fill: rgb(255, 255, 255);"/>
    <circle class="st6" cx="375.5" cy="69.9" r="17.6" style="fill: rgb(255, 255, 255);"/>
    <circle class="st6" cx="392.6" cy="75.5" r="11.5" style="fill: rgb(255, 255, 255);"/>
    <circle class="st6" cx="508.8" cy="86.1" r="17.9" style="fill: rgb(255, 255, 255);"/>
    <circle class="st6" cx="490.3" cy="88.4" r="11.7" style="fill: rgb(255, 255, 255);"/>
  </g>
  <g id="Layer_2" transform="matrix(1, 0, 0, 1, 55.55154, 89.270065)">
    <g id="Man">
      <g>
        <path class="st7" d="M500.1,309.8c-1.2-5.1-1.6-11.7-2.4-11.8h-0.9l-8.6,0.1c0,0-1.8,8.2-2.7,11.6c-0.1,0.2-0.2,0.8-0.4,1.2 c-0.2,0.6-0.2,1.2-0.2,1.8c0.2,3.1,1.4,5.8,4.1,7.1c3.1,1.5,5.4,3,8.6,0C500.9,316.8,501.3,314.9,500.1,309.8z" style="fill: rgb(75, 68, 190);"/>
        <path class="st7" d="M473,298.8l-10.9,0.6c0,0-4.3,7.5-10.6,9.2c-5.9,1.7-15.7,5.8-11.3,8.2c3.2,1.9,24.1,0.2,29.2,0.6 c3.8,0.3,4.9-2,4.5-7.1C473.6,306.4,473,298.8,473,298.8z" style="fill: rgb(75, 68, 190);"/>
      </g>
      <linearGradient id="SVGID_1_" gradientUnits="userSpaceOnUse" x1="1036.1917" y1="1856.3555" x2="1096.0282" y2="1856.3555" gradientTransform="matrix(1 0 0 1 -584.07 -1625.03)">
        <stop offset="0" style="stop-color:#4F68CA"/>
        <stop offset="1" style="stop-color:#5ACEED"/>
      </linearGradient>
      <path class="st8" d="M460,163.2c0,0-7.3,59.9-7.8,63.8c-0.5,3.9,2.5,23.9,2.5,27.7c0,3.8,7.1,44.7,7.1,44.7l11.3-0.5 c0,0-2.3-60.2-2-63.1s12.6-37.8,12.6-37.8s0.9,9.2,0.9,12.2s3.4,88.1,3.4,88.1h9.9l14-125.4l-0.2-2.4L460,163.2z" style="fill: url(#SVGID_1_);"/>
      <linearGradient id="SVGID_2_" gradientUnits="userSpaceOnUse" x1="1029.3594" y1="1742.7834" x2="1113.4447" y2="1742.7834" gradientTransform="matrix(1 0 0 1 -584.07 -1625.03)">
        <stop offset="0" style="stop-color:#F87B58"/>
        <stop offset="0.41" style="stop-color:#F89453"/>
        <stop offset="0.71" style="stop-color:#F8C548"/>
        <stop offset="1" style="stop-color:#F89C51"/>
      </linearGradient>
      <path class="st9" d="M493.3,47.4c0,0-10.9,4.2-13.3,5.2c-2.4,1-3.8,4-3.8,4s-1.2-0.7-1.2,1.3c0,2,1,6.6,1.8,7.9 c1.3,2,2.4,4.1,3.5,6.2c1,2.1,0.6,6.5-0.4,7.1s-19.4,17.2-19.4,17.2l-15.2,46.9l2,14.8l3.1,14.6c0,0-0.6,1.1,0.6,2.3 c1.3,1.2,6.8,10.3,6.8,10.3l1.9-13.4l-6.2-19.8l-2.2-16.7l14.6-29.8l50.5,9l5.5,32.5l-10.2,27.7l-1.8,13.5l8.6-7.5 c0.5-0.4,1.5-2.5,1.9-3.6l5.1-14.4l3.8-23c0,0-31.9-57.5-33.5-60.9c-0.7-1.5,0.1-5.3,0.5-7.1c0.4-1.7,1.2-3.9,2-4.5 c1.2-1.3,1.8-3.2,2.1-4.9c0-1.2,0.5-5.9-0.7-4.8c-0.2,0.3-1.1-1.1-1.5-3C497.5,51.5,495.5,49.2,493.3,47.4z" style="fill: url(#SVGID_2_);"/>
      <linearGradient id="SVGID_3_" gradientUnits="userSpaceOnUse" x1="1024.0522" y1="1753.8486" x2="1117.4845" y2="1753.8486" gradientTransform="matrix(1 0 0 1 -584.07 -1625.03)">
        <stop offset="0" style="stop-color:#E1A1ED"/>
        <stop offset="1" style="stop-color:#7658F4"/>
      </linearGradient>
      <path class="st10" d="M489.2,94.3c-0.8,0.7-2,0.6-2.8-0.1c-0.6-0.9-1.1-1.8-1.5-2.7c-0.8-1.6-7-10.8-7-10.8s-14.8,3.8-17.2,5.3 c-2.4,1.6-4.6,3.8-5.4,6.6c-0.8,2.8-12.2,36.1-12.8,38.2c-0.6,2-3.5,5.3-2.1,13.4c1.4,8.2,9.1,29.2,9.9,29.4c0.8,0.2,9-3.8,9-3.8 s-6.5-26.1-6.5-28.7s5.8-10,8.2-15c2.3-5,4.1-9.4,4.9-11.6c0.8-2.2-7,43.3-7,43.3s-0.2,8.3,1.4,9.1c1.5,0.7,18.9,7.4,22.9,8.9 c0.4,0.2,0.9-0.1,1.1-0.5l0,0l2.6-7.4c0-0.1,0.1-0.2,0.2-0.1c0.1,0,0.1,0.1,0.1,0.1l2.4,8c0.1,0.4,0.6,0.6,1,0.6l21.5-4.6 c0,0-0.3-39.6,0.1-46.3c0.3-6.5-0.5-10.1,0.7-8.3c1.3,1.9,6.7,19.8,6.7,22.8c0,3-6.1,29.3-6.1,29.3l8,4.5c0,0,10.9-28.9,11.4-32.7 c0.6-3.8,0.8-5.8-1-9.6c-1.8-3.8-11.7-38.4-11.7-38.4s-1-4.2-8.3-6.4s-12.7-5.4-14-5.3c-1.3,0.1-5.3,7.7-7.1,10 C490,92.5,490.2,92.9,489.2,94.3z" style="fill: url(#SVGID_3_);"/>
      <linearGradient id="SVGID_4_" gradientUnits="userSpaceOnUse" x1="473.0077" y1="490.6197" x2="501.1031" y2="490.6197" gradientTransform="matrix(1 0 0 1 0 -442)">
        <stop offset="0" style="stop-color:#4F68CA"/>
        <stop offset="1" style="stop-color:#5ACEED"/>
      </linearGradient>
      <path class="st11" d="M493.2,47.5c0,0-12.2,4.5-14.7,6.3c-1.9,1.4-2.3,2.7-2.3,2.7s-1.3-0.6-1.2,1.3c0.1,1.9-1.5-2.9-1.9-4.5 c-0.3-1.5-0.4-5.8,2.9-9s7-5.5,10-5.3s5.6,1.1,8,3.4c2.4,2.3,3,2.2,3.5,2.4c0.5,0.2,3,2.9,3.3,5.8s-0.6,7.2-0.6,7.2 s-0.6-0.6-1.2-0.2c-0.6,0.5-0.8-2.8-2.9-6.7C494.7,48.1,493.2,47.5,493.2,47.5z" style="fill: url(#SVGID_4_);"/>
      <path class="st12" d="M485.5,191.9c-1.4,4.1-6.8,12-10.4,16.8c-3.6,4.8-14.5,14.8-13.8,27.1c0.7,12.2,8.1,43.7,8.1,46.6 c0,2.8-2.8,16.2-4.9,20.3c-2.1,4.1-3.1,11.5-2,11.5c1.9-0.1,4-0.3,5.9-0.8c1.8-0.4,3.6-0.8,5.3-1.4c0.7-0.3,0.9-2.7,0.9-2.7 c0.1-1-0.1-2-0.3-2.9c-0.5-1.5-0.9-3.1-1.1-4.6c-0.4-11.5-1.5-38.2-1.2-40c0.4-3.5-2.4-21.1,0.2-29.7 C474.7,223.3,485.5,191.9,485.5,191.9z" style="opacity: 0.07;"/>
      <path class="st12" d="M459.2,170l-1.9,14.4c0,0,1.9,3,2.4,0.5c0.6-2.5,4.5-7.2,2-10.6C459.4,170.9,459.2,170,459.2,170z" style="opacity: 0.07;"/>
      <path class="st12" d="M511.9,174l-0.6,6.9l-0.8,6.6c0,0-2.8,2-2.7-0.6c0.1-2.6-4.6-6.5-1.1-9.1S511.9,174,511.9,174z" style="opacity: 0.07;"/>
      <path class="st12" d="M477.8,80.9c0.5-0.1-2.3,0.6,0.2-0.2c4.3-1.4,2.5-9.5,2.5-9.5s0.4,3,4.5,4.2c4.1,1.2,5.1,0.3-1,3.2 s-2.9,3.8-2.5,7.5" style="opacity: 0.07;"/>
      <path class="st12" d="M465.6,117.5l-6.8,41.3c0,0,0.1,7.4,1.4,8.4s5.7,1.8,6.6,2.5c1,0.7,11.5,4.2,8.7-1.7 c-0.6-1.3-14.8-9.2-8.5-17.6c6.3-8.3,5.2-19.8,2.2-27.9c-1.8-4.7-2.7-9.7-2.4-14.7L465.6,117.5z" style="opacity: 0.07;"/>
    </g>
  </g>
  <g transform="matrix(0.609413, 0, 0, 0.609413, 241.348358, 104.773483)" style="">
    <path class="st0" d="M192.8,494.2c-2.8-1.8-6.1-4.1-14.3-5.7c-6.7-1.2-10.7-11.7-10.7-11.7l-15.6,0c0,0-1.4,17.4-0.7,18.8 c0.7,1.4,1.1,2.9,4.7,4c3.6,1.1,35.2,0.7,36.6,0.4C194.2,499.7,198.1,497.6,192.8,494.2z" style="fill: rgb(75, 73, 187);"/>
    <path class="st0" d="M11.4,326.9C9.3,330,0.1,360.2,0,361.7s0.7,5.8,5.5,1.8c2.6-2.2,5.8-4.6,9.7-12c3.2-6,14.4-6.7,14.4-6.7 l4.8-14.8c0,0-16.2-6.6-17.8-6.4C15,323.8,13.5,323.8,11.4,326.9z" style="fill: rgb(75, 73, 187);"/>
  </g>
  <path class="st1" d="M 310.881 270.594 C 310.638 270.655 310.333 272.422 310.273 272.666 C 308.871 277.176 295.647 317.397 295.647 319.103 C 295.647 320.81 267.309 308.012 262.738 306.001 C 262.372 305.818 262.007 306.001 261.824 306.305 C 260.91 308.256 258.289 314.045 259.204 314.715 C 260.361 315.507 290.162 336.776 292.6 337.386 C 295.037 337.995 298.693 341.043 304.788 333.729 C 310.028 327.452 324.654 303.685 328.738 297.042 C 328.921 296.738 329.347 296.616 329.651 296.799 C 329.835 296.921 329.956 297.103 330.017 297.347 C 330.749 303.746 331.054 328.55 333.187 335.192 C 335.319 341.834 332.273 348.964 332.273 358.715 L 334.04 394.61 C 334.04 394.976 334.345 395.28 334.709 395.28 L 342.937 395.463 C 343.303 395.463 343.608 395.219 343.668 394.853 C 344.217 389.064 349.64 345.674 350.189 338.909 C 350.798 331.596 354.333 270.229 353.358 266.511 C 352.626 264.196 315.391 269.863 310.881 270.594 Z" style="fill: url(#gradient-1);"/>
  <path class="st2" d="M 313.929 162.545 C 313.929 162.545 316.001 154.257 317.647 154.257 C 319.292 154.257 329.286 155.476 330.505 161.326 C 331.724 167.177 336.294 170.467 336.294 177.537 C 336.294 184.606 339.219 187.897 339.219 187.897 C 339.219 187.897 342.51 177.476 344.948 172.966 C 347.386 168.456 351.712 165.592 351.712 162.545 C 351.712 159.498 348.056 124.884 347.752 123.97 C 347.447 123.056 346.533 117.57 348.666 114.463 C 348.666 114.463 355.248 109.039 356.101 106.845 C 356.77 105.016 358.903 103.981 360.122 106.114 C 361.341 108.246 356.283 114.036 355.43 116.352 C 354.698 118.546 354.15 120.8 353.906 123.116 C 353.906 123.725 352.688 132.928 352.688 137.498 C 352.688 142.069 355.43 156.512 355.43 161.083 C 355.43 165.654 345.314 183.996 344.4 187.41 C 343.485 190.822 314.051 222.938 313.442 223.852 C 312.832 224.766 309.785 231.835 309.785 234.273 C 309.785 236.711 309.785 244.694 311.004 243.17 C 312.223 241.647 317.281 229.458 318.195 227.936 C 319.109 226.412 326.361 224.95 329.774 224.035 C 333.187 223.121 338.184 224.95 337.574 227.082 C 336.965 229.215 327.031 233.237 323.862 234.029 C 321.852 234.516 313.137 244.146 312.527 246.888 C 311.918 249.631 303.935 245.669 303.935 241.708 C 303.935 237.747 304.849 217.515 306.068 214.772 C 307.287 212.03 312.832 200.085 315.879 193.93 C 318.926 187.775 312.223 184.728 311.004 180.462 C 309.785 176.196 313.929 162.545 313.929 162.545 Z" style="fill: url(#gradient-2);"/>
  <path class="st3" d="M 340.256 182.107 C 340.256 182.107 348.239 167.786 349.031 164.191 C 349.824 160.595 347.812 123.847 347.812 123.847 L 353.968 122.933 C 353.968 122.933 359.879 157 360.671 160.96 C 361.464 164.922 358.599 173.453 355.856 178.268 C 353.115 183.082 345.557 203.254 345.557 205.63 C 345.557 208.007 346.045 230.617 347.264 235.005 C 348.482 239.392 353.419 266.633 353.419 266.633 L 310.76 270.655 C 310.76 270.655 312.65 258.772 312.527 254.81 C 312.223 246.096 309.846 239.636 316.184 235.553 C 320.449 232.872 324.472 234.152 329.043 231.896 C 334.345 229.276 335.564 227.143 335.868 225.68 C 336.051 224.827 334.709 222.877 326.483 225.924 C 323.74 226.96 318.195 226.899 318.073 230.434 C 318.012 233.42 321.852 239.879 317.22 242.805 C 317.22 242.805 311.918 255.298 306.982 257.248 C 302.716 258.894 297.658 254.384 297.779 248.473 C 297.901 241.403 298.328 227.875 301.558 221.963 C 304.788 216.051 313.624 200.877 315.209 199.658 C 316.794 198.44 321.607 204.229 327.215 203.437 C 332.821 202.644 335.136 200.024 336.355 197.281 C 337.574 194.54 340.256 182.107 340.256 182.107 Z" style="fill: url(#gradient-3);"/>
  <path class="st4" d="M 322.461 156.086 C 324.959 160.107 328.189 163.582 331.968 166.445 C 338.427 171.442 332.028 185.338 331.724 192.284 C 331.48 197.831 334.771 205.509 342.754 210.688 C 348.482 214.467 344.461 222.999 344.461 227.265 C 344.461 231.53 353.724 221.232 354.089 216.356 C 354.516 210.324 352.992 206.057 348.726 201.182 C 344.766 196.612 340.133 179.487 338.854 171.381 C 338.732 170.528 338.671 169.736 338.732 168.883 C 338.854 166.018 338.489 156.939 330.322 151.819 C 320.572 145.726 314.477 151.332 310.517 154.683 C 305.702 158.767 303.751 170.163 304.97 187.836 C 306.189 205.509 303.142 215.564 301.07 220.683 C 296.317 232.323 309.236 224.157 311.613 217.454 C 314.66 208.861 316.794 208.19 321.12 201.486 C 322.826 198.866 320.572 189.969 318.682 186.251 C 315.086 179.061 313.015 176.075 313.015 171.199 C 313.015 166.323 318.804 157.914 322.461 156.086 Z" style="fill: url(#gradient-4);"/>
  <path class="st5" d="M 324.35 187.653 C 324.35 187.653 331.236 188.079 333.126 183.692 C 333.308 183.205 332.028 197.099 331.663 195.27 C 331.175 193.382 324.35 187.653 324.35 187.653 Z" style="opacity: 0.07;"/>
  <path class="st5" d="M 312.223 219.769 C 312.223 219.769 310.638 229.642 309.785 234.152 C 309.298 236.588 308.993 239.026 308.932 241.525 C 308.932 241.525 314.782 234.212 316.671 231.287 C 317.829 229.458 314.295 230.373 313.99 223.669 C 313.685 216.965 313.746 212.639 313.746 212.639 L 312.223 219.769 Z" style="opacity: 0.07;"/>
  <path class="st5" d="M 312.71 251.519 C 312.71 251.519 317.951 246.401 318.195 243.719 C 318.5 240.184 320.999 240.367 320.999 242.561 C 320.999 244.755 317.098 261.148 319.475 265.475 C 321.852 269.802 323.74 269.741 323.74 269.741 L 310.943 270.655 L 312.71 251.519 Z" style="opacity: 0.07;"/>
  <path class="st5" d="M 323.68 269.68 C 323.68 269.68 324.411 282.722 319.78 287.048 C 310.333 295.884 315.879 307.463 311.674 312.522 C 308.14 316.726 307.226 328.854 298.754 331.536 C 295.402 332.632 283.336 325.259 280.899 324.406 C 275.719 322.638 272.062 312.705 255.913 307.585 C 252.135 306.366 265.847 307.647 265.847 307.647 L 295.586 319.957 L 310.943 270.655 L 323.68 269.68 Z" style="opacity: 0.07;"/>
</svg>